/* XPM */
static char *result[] = {
/* columns rows colors chars-per-pixel */
"47 64 13 1 ",
"  c black",
". c #682828",
"X c #383878",
"o c #784040",
"O c #C03838",
"+ c #A87840",
"@ c #F86848",
"# c #B89838",
"$ c #D89070",
"% c #F8D858",
"& c #70A0C0",
"* c #F8C090",
"= c None",
/* pixels */
"===============================================",
"===============================================",
"===============================================",
"==========...........................==========",
"==========...........................==========",
"==========...........................==========",
"=======...OOO@@@@@@@@@@@@@@@@@@@@@OOO...=======",
"=======...OOO@@@@@@@@@@@@@@@@@@@@@OOO...=======",
"=======...OOO@@@@@@@@@@@@@@@@@@@@@OOO...=======",
"=======...OOO@@@@@@@@@@@@@@@@@@@@@OOO...=======",
"=======...@@@@@@@@@@@@@@@@@@@@@@@@@@@...=======",
"=======...@@@@@@@@@@@@@@@@@@@@@@@@@@@...=======",
"=======...@@@@@@@@@@@@@@@@@@@@@@@@@@@...=======",
"===....OOO@@@@@@@@@@@@@@@@@@@@@@@@@@@OOO....===",
"===....OOO@@@@@@@@@@@@@@@@@@@@@@@@@@@OOO....===",
"===....OOO@@@@@@@@@@@@@@@@@@@@@@@@@@@OOO....===",
"===....OOOOOO@@@@@@@@@@@@@@@@@@@@@OOOOOO....===",
"===....OOOOOO@@@@@@@@@@@@@@@@@@@@@OOOOOO....===",
"===....OOOOOO@@@@@@@@@@@@@@@@@@@@@OOOOOO....===",
"===....OOOOOO@@@@@@@@@@@@@@@@@@@@@OOOOOO....===",
"===    OOOOOOOOOOOOOOOOOOOOOOOOOOOOOOOOO    ===",
"===    OOOOOOOOOOOOOOOOOOOOOOOOOOOOOOOOO    ===",
"===    OOOOOOOOOOOOOOOOOOOOOOOOOOOOOOOOO    ===",
"===    ...OOOOOOOOOOOOOOOOOOOOOOOOOOO...    ===",
"===    ...OOOOOOOOOOOOOOOOOOOOOOOOOOO...    ===",
"===    ...OOOOOOOOOOOOOOOOOOOOOOOOOOO...    ===",
"===    ...OOOOOOOOOOOOOOOOOOOOOOOOOOO...    ===",
"   ++++ooo...OOOOOOO       OOOOOOO...ooo++++   ",
"   ++++ooo...OOOOOOO       OOOOOOO...ooo++++   ",
"   ++++ooo...OOOOOOO       OOOOOOO...ooo++++   ",
"   $$$$   ooo.....................ooo   $$$$   ",
"   $$$$   ooo.....................ooo   $$$$   ",
"   $$$$   ooo.....................ooo   $$$$   ",
"===       ooooooo+++ooooooo+++ooooooo       ===",
"===       ooooooo+++ooooooo+++ooooooo       ===",
"===       ooooooo+++ooooooo+++ooooooo       ===",
"===       ooooooo+++ooooooo+++ooooooo       ===",
"=======          ooooooooooooo          =======",
"=======          ooooooooooooo          =======",
"=======          ooooooooooooo          =======",
"===    XXXooo####             ####ooo       ===",
"===    XXXooo####             ####ooo       ===",
"===    XXXooo####             ####ooo       ===",
"ooo****XXXOOO####OOOOOOOOOOOOO####OOOXXX****ooo",
"ooo****XXXOOO####OOOOOOOOOOOOO####OOOXXX****ooo",
"ooo****XXXOOO####OOOOOOOOOOOOO####OOOXXX****ooo",
"ooo****XXXOOO####OOOOOOOOOOOOO####OOOXXX****ooo",
"ooo$$$$oooOOOoooo%%%%%%%%%%%%%ooooOOOooo$$$$ooo",
"ooo$$$$oooOOOoooo%%%%%%%%%%%%%ooooOOOooo$$$$ooo",
"ooo$$$$oooOOOoooo%%%%%%%%%%%%%ooooOOOooo$$$$ooo",
"===oooo      ####%%%%%%%%%%%%%####      oooo===",
"===oooo      ####%%%%%%%%%%%%%####      oooo===",
"===oooo      ####%%%%%%%%%%%%%####      oooo===",
"===oooo      ####%%%%%%%%%%%%%####      oooo===",
"=======XXX&&&#####################&&&XXX=======",
"=======XXX&&&#####################&&&XXX=======",
"=======XXX&&&#####################&&&XXX=======",
"=======      &&&&###ooooooo###&&&&      =======",
"=======      &&&&###ooooooo###&&&&      =======",
"=======      &&&&###ooooooo###&&&&      =======",
"=======   XXXXXXX             XXXXXXX   =======",
"==========       =============       ==========",
"==========       =============       ==========",
"==========       =============       =========="
};
