/* XPM */
static char *result[] = {
/* columns rows colors chars-per-pixel */
"47 64 12 1 ",
"  c black",
". c #682323",
"X c #793E3E",
"o c #353579",
"O c #C13535",
"+ c #A9793E",
"@ c #F86846",
"# c #B99935",
"$ c #D99170",
"% c #F8D957",
"& c #70A1C1",
"* c None",
/* pixels */
"**********...........................**********",
"**********...........................**********",
"**********...........................**********",
"*******...OOO@@@@@@@@@@@@@@@@@@@@@OOO...*******",
"*******...OOO@@@@@@@@@@@@@@@@@@@@@OOO...*******",
"*******...OOO@@@@@@@@@@@@@@@@@@@@@OOO...*******",
"*******...OOO@@@@@@@@@@@@@@@@@@@@@OOO...*******",
"*******...@@@@@@@@@@@@@@@@@@@@@@@@@@@...*******",
"*******...@@@@@@@@@@@@@@@@@@@@@@@@@@@...*******",
"*******...@@@@@@@@@@@@@@@@@@@@@@@@@@@...*******",
"***....OOO@@@@@@@@@@@@@@@@@@@@@@@@@@@OOO....***",
"***....OOO@@@@@@@@@@@@@@@@@@@@@@@@@@@OOO....***",
"***....OOO@@@@@@@@@@@@@@@@@@@@@@@@@@@OOO....***",
"***....OOOOOO@@@@@@@@@@@@@@@@@@@@@OOOOOO....***",
"***....OOOOOO@@@@@@@@@@@@@@@@@@@@@OOOOOO....***",
"***....OOOOOO@@@@@@@@@@@@@@@@@@@@@OOOOOO....***",
"***....OOOOOO@@@@@@@@@@@@@@@@@@@@@OOOOOO....***",
"***    OOOOOOOOOOOOOOOOOOOOOOOOOOOOOOOOO    ***",
"***    OOOOOOOOOOOOOOOOOOOOOOOOOOOOOOOOO    ***",
"***    OOOOOOOOOOOOOOOOOOOOOOOOOOOOOOOOO    ***",
"***    ...OOOOOOOOOOOOOOOOOOOOOOOOOOO...    ***",
"***    ...OOOOOOOOOOOOOOOOOOOOOOOOOOO...    ***",
"***    ...OOOOOOOOOOOOOOOOOOOOOOOOOOO...    ***",
"***    ...OOOOOOOOOOOOOOOOOOOOOOOOOOO...    ***",
"   ++++XXX...OOOOOOO       OOOOOOO...XXX++++   ",
"   ++++XXX...OOOOOOO       OOOOOOO...XXX++++   ",
"   ++++XXX...OOOOOOO       OOOOOOO...XXX++++   ",
"   $$$$   XXX.....................XXX   $$$$   ",
"   $$$$   XXX.....................XXX   $$$$   ",
"   $$$$   XXX.....................XXX   $$$$   ",
"***       XXXXXXX+++XXXXXXX+++XXXXXXX       XXX",
"***       XXXXXXX+++XXXXXXX+++XXXXXXX       XXX",
"***       XXXXXXX+++XXXXXXX+++XXXXXXX       XXX",
"***       XXXXXXX+++XXXXXXX+++XXXXXXX       XXX",
"*******XXX       XXXXXXXXXXXXX       ooo$$$$XXX",
"*******XXX       XXXXXXXXXXXXX       ooo$$$$XXX",
"*******XXX       XXXXXXXXXXXXX       ooo$$$$XXX",
"*******   oooXXXX             XXXXXXXoooooooXXX",
"*******   oooXXXX             XXXXXXXoooooooXXX",
"*******   oooXXXX             XXXXXXXoooooooXXX",
"***    oooXXX####OOOOOOOOOOOOO####OOOooo    ***",
"***    oooXXX####OOOOOOOOOOOOO####OOOooo    ***",
"***    oooXXX####OOOOOOOOOOOOO####OOOooo    ***",
"***    oooXXX####OOOOOOOOOOOOO####OOOooo    ***",
"   $$$$oooOOOXXXX%%%%%%%%%%%%%XXXXOOOXXX*******",
"   $$$$oooOOOXXXX%%%%%%%%%%%%%XXXXOOOXXX*******",
"   $$$$oooOOOXXXX%%%%%%%%%%%%%XXXXOOOXXX*******",
"   $$$$$$$OOO####%%%%%%%%%%%%%####OOO   *******",
"   $$$$$$$OOO####%%%%%%%%%%%%%####OOO   *******",
"   $$$$$$$OOO####%%%%%%%%%%%%%####OOO   *******",
"   $$$$$$$OOO####%%%%%%%%%%%%%####OOO   *******",
"***       ooo#######%%%%%%%#######ooo   *******",
"***       ooo#######%%%%%%%#######ooo   *******",
"***       ooo#######%%%%%%%#######ooo   *******",
"**********       ###XXXXXXX###ooooooo**********",
"**********       ###XXXXXXX###ooooooo**********",
"**********       ###XXXXXXX###ooooooo**********",
"*****************          &&&&&&&   **********",
"*****************          &&&&&&&   **********",
"*****************          &&&&&&&   **********",
"*****************          &&&&&&&   **********",
"***************************       *************",
"***************************       *************",
"***************************       *************"
};
