/* XPM */
static char *result[] = {
/* columns rows colors chars-per-pixel */
"55 64 4 1 ",
"  c black",
". c #010101",
"X c #626361",
"o c None",
/* pixels */
"ooooooooooooooooooo                 ooooooooooooooooooo",
"ooooooooooooooooooo                 ooooooooooooooooooo",
"ooooooooooooooo    XXXXXXXXXXXXXXX      ooooooooooooooo",
"ooooooooooooooo    XXXXXXXXXXXXXXX      ooooooooooooooo",
"ooooooooooo    XXXXXXXXXXXXXXXXXXXXXXX      ooooooooooo",
"ooooooooooo    XXXXXXXXXXXXXXXXXXXXXXX      ooooooooooo",
"ooooooooo  XXXXXXXXXXXXXXXXXXXXXXXXXXXXXXX    ooooooooo",
"ooooooooo  XXXXXXXXXXXXXXXXXXXXXXXXXXXXXXX    ooooooooo",
"ooooooooo  XXXXXXXXXXXXXXXXXXXXXXXXXXXXXXX    ooooooooo",
"ooooooooo  XXXXXXXXXXXXXXXXXXXXXXXXXXXXXXX    ooooooooo",
"ooooooo  XXXXXXXXXXXXXXXXXXXXXXXXXXXXXXXXXXX    ooooooo",
"ooooooo  XXXXXXXXXXXXXXXXXXXXXXXXXXXXXXXXXXX    ooooooo",
"ooooooo  XXXXXXXXXXXXXXXXXXXXXXXXXXXXXXXXXXX    ooooooo",
"ooooooo  XXXXXXXXXXXXXXXXXXXXXXXXXXXXXXXXXXX    ooooooo",
"ooooo  XXXXXXXXXXXXXXXXXXXXXXXXXXXXXXXXXXXXXXX    ooooo",
"ooooo  XXXXXXXXXXXXXXXXXXXXXXXXXXXXXXXXXXXXXXX    ooooo",
"ooooo  XXX.     ..XXXX.       XXX        XXXXX    ooooo",
"ooooo  XXX.     ..XXXX.       XXX        XXXXX    ooooo",
"ooooo  XXX..XXXXXX..XXXXX  XXXXXX  XXXXXX  XXX    ooooo",
"ooooo  XXX..XXXXXX..XXXXX  XXXXXX  XXXXXX  XXX    ooooo",
"ooooo  XXX..XXXXXX..XXXXX  XXXXXX  XXXXXX  XXX    ooooo",
"ooooo  XXX.     ..XXXXXXX  XXXXXX        XXXXX    ooooo",
"ooooo  XXX.     ..XXXXXXX  XXXXXX        XXXXX    ooooo",
"ooooo  XXX..XXXXXX..XXXXX  XXXXXX  XXXXXXXXXXX    ooooo",
"ooooo  XXX..XXXXXX..XXXXX  XXXXXX  XXXXXXXXXXX    ooooo",
"ooooo  XXX..XXXXXX..XXXXX  XXXXXX  XXXXXXXXXXX    ooooo",
"ooooo  XXX..XXXXXX..XX        XXX  XXXXXXXXXXX    ooooo",
"ooooo  XXX..XXXXXX..XX.       XXX  XXXXXXXXXXX    ooooo",
"ooooo  XXXXXXXXXXXXXXXXXXXXXXXXXXXXXXXXXXXXXXX    ooooo",
"ooooo  XXXXXXXXXXXXXXXXXXXXXXXXXXXXXXXXXXXXXXX    ooooo",
"ooooo  XXXXXXXXXXXXXXXXXXXXXXXXXXXXXXXXXXXXXXX    ooooo",
"ooooo  XXXXXXXXXXXXXXXXXXXXXXXXXXXXXXXXXXXXXXX    ooooo",
"ooooo  XXXXXXXXXXXXXXXXXXXXXXXXXXXXXXXXXXXXXXX    ooooo",
"ooooo  XXXXXXXXXXXXXXXXXXXXXXXXXXXXXXXXXXXXXXX    ooooo",
"ooooo  XXXXXXXXXXXXXXXXXXXXXXXXXXXXXXXXXXXXXXX    ooooo",
"ooooo  XXXXXXXXXXXXXXXXXXXXXXXXXXXXXXXXXXXXXXX    ooooo",
"ooooo  XXXXXXXXXXXXXXXXXXXXXXXXXXXXXXXXXXXXXXX    ooooo",
"ooooo  XXXXXXXXXXXXXXXXXXXXXXXXXXXXXXXXXXXXXXX    ooooo",
"ooooo  XXXXXXXXXXXXXXXXXXXXXXXXXXXXXXXXXXXXXXX    ooooo",
"ooooo  XXXXXXXXXXXXXXXXXXXXXXXXXXXXXXXXXXXXXXX    ooooo",
"ooooo  XXXXXXXXXXXXXXXXXXXXXXXXXXXXXXXXXXXXXXX    ooooo",
"ooooo  XXXXXXXXXXXXXXXXXXXXXXXXXXXXXXXXXXXXXXX    ooooo",
"ooooo  XXXXXXXXXXXXXXXXXXXXXXXXXXXXXXXXXXXXXXX    ooooo",
"ooooo  XXXXXXXXXXXXXXXXXXXXXXXXXXXXXXXXXXXXXXX    ooooo",
"ooooo  XXXXXXXXXXXXXXXXXXXXXXXXXXXXXXXXXXXXXXX    ooooo",
"ooooo  XXXXXXXXXXXXXXXXXXXXXXXXXXXXXXXXXXXXXXX    ooooo",
"ooooo  XXXXXXXXXXXXXXXXXXXXXXXXXXXXXXXXXXXXXXX    ooooo",
"ooooo  XXXXXXXXXXXXXXXXXXXXXXXXXXXXXXXXXXXXXXX    ooooo",
"ooooo  XXXXXXXXXXXXXXXXXXXXXXXXXXXXXXXXXXXXXXX    ooooo",
"ooooo  XXXXXXXXXXXXXXXXXXXXXXXXXXXXXXXXXXXXXXX    ooooo",
"ooooo  XXXXXXXXXXXXXXXXXXXXXXXXXXXXXXXXXXXXXXX    ooooo",
"ooooo  XXXXXXXXXXXXXXXXXXXXXXXXXXXXXXXXXXXXXXX    ooooo",
"ooooo  XXXXXXXXXXXXXXXXXXXXXXXXXXXXXXXXXXXXXXX    ooooo",
"ooooo  XXXXXXXXXXXXXXXXXXXXXXXXXXXXXXXXXXXXXXX    ooooo",
"ooooo  XXXXXXXXXXXXXXXXXXXXXXXXXXXXXXXXXXXXXXX    ooooo",
"ooooo  XXXXXXXXXXXXXXXXXXXXXXXXXXXXXXXXXXXXXXX    ooooo",
"ooooo  XXXXXXXXXXXXXXXXXXXXXXXXXXXXXXXXXXXXXXX    ooooo",
"oo                                                   oo",
"oo                                                   oo",
"  XXXXXXXXXXXXXXXXXXXXXXXXXXXXXXXXXXXXXXXXXXXXXXXXX    ",
"  XXXXXXXXXXXXXXXXXXXXXXXXXXXXXXXXXXXXXXXXXXXXXXXXX    ",
"  XXXXXXXXXXXXXXXXXXXXXXXXXXXXXXXXXXXXXXXXXXXXXXXXX    ",
"                                                       ",
"                                                       "
};
