/* XPM */
static char *result[] = {
/* columns rows colors chars-per-pixel */
"64 64 4 1 ",
"  c #191010",
". c #AD7BBD",
"X c #DEB5C5",
"o c None",
/* pixels */
"oooooooooooooooooooooooooooooooooooooooooooooooooooooooooooooooo",
"oooooooooooooooooooooooooooooooooooooooooooooooooooooooooooooooo",
"oooooooooooooooooooooooooooooooooooooooooooooooooooooooooooooooo",
"oooooooooooooooooooooooooooooooooooooooooooooooooooooooooooooooo",
"oooooooooooooooooooooooooooooooooooooooooooooooooooooooooooooooo",
"oooooooooooooooooooooooooooooooooooooooooooooooooooooooooooooooo",
"oooooooooooooooooooooooooooooooooooooooooooooooooooooooooooooooo",
"oooooooooooooooooooooooooooooooooooooooooooooooooooooooooooooooo",
"oooooooooooooooooooooooooooooooooooooooooooooooooooooooooooooooo",
"oooooooooooooooooooooooooooooooooooooooooooooooooooooooooooooooo",
"oooooooooooooooooooooooooooooooooooooooooooooooooooooooooooooooo",
"oooooooooooooooooooooooooooooooooooooooooooooooooooooooooooooooo",
"oooooooooooooooooooooooooooooooooooooooooooooooooooooooooooooooo",
"oooooooooooooooooooooooooooooooooooooooooooooooooooooooooooooooo",
"oooooooooooooooooooooooooooooooooooooooooooooooooooooooooooooooo",
"oooooooooooooooooooooooooooooooooooooooooooooooooooooooooooooooo",
"oooooooooooooooooooooooooooooooooooooooooooooooooooooooooooooooo",
"oooooooooooooooooooooooooooooooooooooooooooooooooooooooooooooooo",
"oooooooooooooooooooooooooooooooooooooooooooooooooooooooooooooooo",
"oooooooooooooooooooooooooooooooooooooooooooooooooooooooooooooooo",
"oooooooooooooooooooooooooooooooooooooooooooooooooooooooooooooooo",
"oooooooooooooooooooooooooooooooooooooooooooooooooooooooooooooooo",
"oooooooooooooooooooooooooooooooooooooooooooooooooooooooooooooooo",
"oooooooooooooooooooooooooooooooooooooooooooooooooooooooooooooooo",
"ooooooooooooooooooooooooooooooXXoooooooooooooooooooooooooooooooo",
"ooooooooooooooooooooooooooooooXXoooooooooooooooooooooooooooooooo",
"ooooooooooooooooXXooooooXXooooooooooooXXooooooooXXoooooooooooooo",
"ooooooooooooooooXXooooooXXooooooooooooXXooooooooXXoooooooooooooo",
"ooooooooooooooooooooXXooooXXooooXXXXooooooooXXoooooooooooooooooo",
"ooooooooooooooooooooXXooooXXooooXXXXooooooooXXoooooooooooooooooo",
"ooooooooooooooooXXooooooooooooooooooooXXooooooooXXooXXoooooooooo",
"ooooooooooooooooXXooooooooooooooooooooXXooooooooXXooXXoooooooooo",
"ooooooooooooXXooooooXXooXXoooo..ooXXooooXXooXXoooooooooooooooooo",
"ooooooooooooXXooooooXXooXXoooo..ooXXooooXXooXXoooooooooooooooooo",
"ooooooooooooooooXXooooXXooooXXooooooXXooXXXXooooXXoooooooooooooo",
"ooooooooooooooooXXooooXXooooXXooooooXXooXXXXooooXXoooooooooooooo",
"ooooooXXooooooXXooXXXXooXX..XXooXX..ooXXooXXoo..ooooXXoooooooooo",
"ooooooXXooooooXXooXXXXooXX..XXooXX..ooXXooXXoo..ooooXXoooooooooo",
"ooooooooooXXooXX..XXooXXXXXXXX..XXooXX..XXooXXXXXXoooooooooooooo",
"ooooooooooXXooXX..XXooXXXXXXXX..XXooXX..XXooXXXXXXoooooooooooooo",
"ooooooooooooooooooooXX....ooXX..ooXXXXXXooXXooXXooooXXooXXoooooo",
"ooooooooooooooooooooXX....ooXX..ooXXXXXXooXXooXXooooXXooXXoooooo",
"ooooooooXXooXXXX..XX....ooXX..XX......XXXX..XXXXXX..oooooooooooo",
"ooooooooXXooXXXX..XX....ooXX..XX......XXXX..XXXXXX..oooooooooooo",
"ooooooXXooXXooXXXXoo..XXXX....XX  XX......XXXXXXooXXXXXXoooooooo",
"ooooooXXooXXooXXXXoo..XXXX....XX  XX......XXXXXXooXXXXXXoooooooo",
"ooooooXXoo..XX....XX..XX..XX..XX........XX..ooXXXXXX..oooooooooo",
"ooooooXXoo..XX....XX..XX..XX..XX........XX..ooXXXXXX..oooooooooo",
"ooooooooooXXXXooXX..XX..XX..  ....XX........XX....XXXXooXXoooooo",
"ooooooooooXXXXooXX..XX..XX..  ....XX........XX....XXXXooXXoooooo",
"ooooXXooXXooXX....  ..  ..XX..  ..  ..XX  ....XXooXXooXXoooooooo",
"ooooXXooXXooXX....  ..  ..XX..  ..  ..XX  ....XXooXXooXXoooooooo",
"oooooooooo....XXXX..XX....  ....  ..  ..........XXoo....ooXXoooo",
"oooooooooo....XXXX..XX....  ....  ..  ..........XXoo....ooXXoooo",
"ooooXXooXXooXX..  ......  ..        ..  ..  ....XX..ooXXXXoooooo",
"ooooXXooXXooXX..  ......  ..        ..  ..  ....XX..ooXXXXoooooo",
"oooooooo..XX..XX....  ..      ..  ..    ..    XX..XXXXXXoooooooo",
"oooooooo..XX..XX....  ..      ..  ..    ..    XX..XXXXXXoooooooo",
"ooooooXXXX..XX..  ......                ..    ..  ..XXooXXoooooo",
"ooooooXXXX..XX..  ......                ..    ..  ..XXooXXoooooo",
"oooooooooo..ooXXXXXX..      ..    ..  ..    XX  XX..XXXXoooooooo",
"oooooooooo..ooXXXXXX..      ..    ..  ..    XX  XX..XXXXoooooooo",
"ooooooXXooooXX..XX..  ....              ......XX..XX..ooXXoooooo",
"ooooooXXooooXX..XX..  ....              ......XX..XX..ooXXoooooo"
};
