/* XPM */
static char *result[] = {
/* columns rows colors chars-per-pixel */
"64 64 5 1 ",
"  c #191010",
". c #AD7BBD",
"X c #DEB5C5",
"o c white",
"O c None",
/* pixels */
"OOOOOOOOOOOOOOOOOOOOOOOOOOOOOOOOOOOOOOOOOOOOOOOOOOOOOOOOOOOOOOOO",
"OOOOOOOOOOOOOOOOOOOOOOOOOOOXXOOOOOOOOOOOOOOOOOOOOOOOOOOOOOOOOOOO",
"OOOOOOOOOOOOOOOOOOOOOOOOOOOOOOOXOXOOOOOOOOOOOOOOOOOOOOOOOOOOOOOO",
"OOOOOOOOOOOOOOOOOOOOOOXOOXOOOOOOOOOOOOOOXOOOOOOOOOOOOOOOOOOOOOOO",
"OOOOOOOOOOOOOOOOOOOOOOXOOXOOOOOOOOOOOOOOXOOOOOOOOOOOOOOOOOOOOOOO",
"OOOOOOOOOOOOOOOOXOOOOOOOOOOOOOOOOXOOOXOOOOOOOOXOOOOOOOOOOOOOOOOO",
"OOOOOOOOOOOOOOXOOOOOOOOXOOOOOXOOOOOXXOOXOOOOOOOOOOOOOOOOOOOOOOOO",
"OOOOOOOOOOXOOOOOOO.XXOOOOOXOOOXOXOOOOXOOOOXOOOOOOOOOOOOOOOOOOOOO",
"OOOOOOOOOOOOOOOOOOOOOXOOOOOXXXXXOOOOOOOOOOOOOXOOOOXOOOOOOOOOOOOO",
"OOOOOOOOOOOOOOXOOXOXXO.O.XXOOO.OXXXXXOOXXOOXXOOOOOOOOXOOOOOOOOOO",
"OOOOOOXOOOOOOOX.XXOXXXOX.OO..XXXOO.OOXOOXXOOOOOXOOOOOOOOOOOOOOOO",
"OOOOOOOOOXOXXOOXOXXOOOOXX.OOOX.OXOXOOOXXOX.OOOXOXXOOOOOOOOOOOOOO",
"OOOOOOOOOXOXXOOXOXXOOOOXX.OOOX.OXOXOOOXXOX.OOOXOXXOOOOOOOOOOOOOO",
"OOOOOOOOOOOXXXXO.OOXXOX.XXX..X.OX.X..XOOXOO..XOOOOOOOOOXOOOOOOOO",
"OOOOOXOOOOXXXOXOXO.XX.O..XXXX..XO.X..O.XX.XXXOOXOOXOOOOOOOXOOOOO",
"OOOOOOOXOOOOOXOOX.X..OO.X.X..OX.X.XXX..X.OOXX.OOXO.OOXOOOOOOOOOO",
"OOOOOXXOOOXOOX.XOX.OO.XX..X..XXX.X.XXXXX.XOOOXXO.OXOOOOOOOOOOOOO",
"OOOOOOOXOOOXXXOOX..XX.X.XX...X...X.XX..XXXXXX.O.XOOOOXOOOXOOOOOO",
"OOXOOOOXXO.OOXX..XX..XXXX.X...X.XX.XXX. .XXOOXXOXOOXXOOOOOOXXOOO",
"OOOOOXOOXOOXXOO..X.XXX..X.X...X..X.XX.. XX.XX.OOXOXOOOXOOOOOOOOO",
"OOOOOXOOXOOXXOO..X.XXX..X.X...X..X.XX.. XX.XX.OOXOXOOOXOOOOOOOOO",
"OOXOOXOXOXXOOX.X...XXXX..X...X..X.....  X.XOOXXXXXOOOXOOXOOOOOOO",
"OOOXXXXXOXXOOXX.X......X..X...X..X...   .XXXXXXXOO.OOOOOOOOXXOOO",
"OOXOOXXX.O.XX.X...X..X..XX.XX.XX...  XX ..X..O.XOXXOOXOOOXOOOOOO",
"OXOXXOXXO.X......X.XX..X..X..X.... XXoo .....XOX.XOXXXOXOOOOOOOO",
"OOOXXOXXX.....X.X.....X.X X.....  Xoooo..X.XX.X.XOXXXOXOOOXOOOOO",
"OOOOOX....X..XXX...XX... .X.... Xoooooo...XXX.XXXOX..OOXOOOOOOOO",
"OOOXXX X.XX..X... .... X...... Xooooooo.X....XX.OO.XXXOOXOOOOOOO",
"OOOXXX X.XX..X... .... X...... Xooooooo.X....XX.OO.XXXOOXOOOOOOO",
"OXOXXX ...X...X. X.XX...X.... Xoooooooo..X.XX..X.XXXXOOXXXOXXOXO",
"OOOOOOX .....X..X. ... ....  Xoooooooo...X....XXX.XOO.XX.OOOOOOO",
"OOOOOXX   .....X. X.... .. XXooooooooo..XX ..XX.XXXXXOXOOOOOOOOO",
"OOXOOOX XX    .... XX . . XooooooooooX..X..XXX.X.XXXXXOOOXOOOOOO",
"OOOOOXX. oXXXX   ..  X   XoooooooooXX..... ...X..XXOOXXXOOOXXOOO",
"OOOOO.X..oooooXXX        .ooo ooooo...... .XXX.XXXXOOOXOXOOOOOOO",
"OOXOOX.X.ooooooooXX        oo oooX   ...  ...XXXXXXXXXXOOXOOOOOO",
"OOXOOX.X.ooooooooXX        oo oooX   ...  ...XXXXXXXXXXOOXOOOOOO",
"OXOOOX.XX.oooooooo XX        Xo.  .....  ..XX.X.XXXXXXOXOXOOOXOO",
"OOOOOXXXX.Xooooooo ooX     ..   ......   .XXXX.XXO.XXXOXOOOOOOOO",
"OOXOOOOXXX...oooooooo  . .   ......  oo ..XXXXOXOXXOOXOOXOOOOOOO",
"OOOOOO.XX.XXX.Xoooo     . .......    ooo.XX..X.XXXXXXXOXOOOOOOOO",
"OXOOOXO.X.XXXXXX.  ... ........       oo .XXXX.XO.XOOXOOOOXOOOOO",
"OOOOOOO.XO.XXXXX .........           . ooXXXXXOOOO.XXOXOXOOOOOOO",
"OOOXXOOXOX.XXXOX.    ooo   ...     .... o.XXXXX.XOXOOOXOOOOOOOOO",
"OOOXXOOXOX.XXXOX.    ooo   ...     .... o.XXXXX.XOXOOOXOOOOOOOOO",
"OOOOOOXO..X...X....   ooo.       .XXX....XX..XXOXOOXXOOXOOOOOOOO",
"OOXOOOOOXX.OOX....X..  oo     ...X.XXOXXXXXXX.OO.OOOOOOOOOXOOOOO",
"OOOOOOOXOOXOO.X.X...... oo........OXXXOXXO....XOXOXOOOXOOOOOOOOO",
"OOOOOOXOOXO..X.O..O..XX. o....X..XOXXX.X..X..X..OOOOOOOOOOOOOOOO",
"OOOXXOOOOOOOO.X.XXX..XX.. .XX.XX.XXXX.XOXXXOO.OOOOOXXOOOOOOOOOOO",
"OOOOOOXOOXXOOOOO..XOO..O..X...XXXOXOOOXXOO.OOXXXOXOOOXOOXOOOOOOO",
"OOOOOOOOXOOOOOXO.X.OO...XXXOOXXXXXOXXOX.OX.OOOOXOOOOOOOOOOOOOOOO",
"OOOOOOOOXOOOOOXO.X.OO...XXXOOXXXXXOXXOX.OX.OOOOXOOOOOOOOOOOOOOOO",
"OOOOOOXOOXOOOOOOOOXXX.O.X.X..O.XXXOXXX..X.OXXOOOOOOXXOOOOOOOOOOO",
"OOOOOOOOXOOXXOOXOOXXXOXX.OOOOOX.XXXOOXOXOXXXXOOOXOOOOOXOOOOOOOOO",
"OOOOOOOOOOOOOOOOOOOOOOOOX.XOO.XOOOOOOOXXOOOOOXOOOOOOOOOOOOOOOOOO",
"OOOOOOOOOXOXXOOXOXOOOOXOXOXOOOOOXOXOOOXXOOOOOOXOOXOOOOOOOOOOOOOO",
"OOOOOOOOOOOOOOOOOOOXXOOOOOOOOXOOOOOOOOOOOXOOOXOOOOOOOOOOOOOOOOOO",
"OOOOOOOOOOOOOOOOXOOXXOXO.XOOOOOOXOXOOXXOOOOOOOOOOOOOOOOOOOOOOOOO",
"OOOOOOOOOOOOOOOOOOOOOXOXXOOXXOOXOOOOOOOOOOXOOOOOOOOOOOOOOOOOOOOO",
"OOOOOOOOOOOOOOOOOOOOOXOXXOOXXOOXOOOOOOOOOOXOOOOOOOOOOOOOOOOOOOOO",
"OOOOOOOOOOOOOOOOOOOOOOOOOOXOOOOXOOOXXOOOOOOOOOOOOOOOOOOOOOOOOOOO",
"OOOOOOOOOOOOOOOOOOOOOOOOOOOOOOOOOOOOOOOOOOOOOOOOOOOOOOOOOOOOOOOO",
"OOOOOOOOOOOOOOOOOOOOOOOOOOOOOOOOOOOOOOOOOOOOOOOOOOOOOOOOOOOOOOOO"
};
