/* XPM */
static char *result[] = {
/* columns rows colors chars-per-pixel */
"54 64 13 1 ",
"  c black",
". c #682828",
"X c #383878",
"o c #784040",
"O c #C03838",
"+ c #A77843",
"@ c #F86848",
"# c #D89070",
"$ c #70A0C0",
"% c #F8C090",
"& c #B0B0D0",
"* c #E8E8F8",
"= c None",
/* pixels */
"=================...........................==========",
"=================...........................==========",
"=================...........................==========",
"=============....OOO@@@@@@@@@@@@@@@@@@@@OOOO...=======",
"=============....OOO@@@@@@@@@@@@@@@@@@@@OOOO...=======",
"=============....OOO@@@@@@@@@@@@@@@@@@@@OOOO...=======",
"=============....OOO@@@@@@@@@@@@@@@@@@@@OOOO...=======",
"=============....@@@@@@@@@@@@@@@@@@@@@@@@@@@...=======",
"=============....@@@@@@@@@@@@@@@@@@@@@@@@@@@...=======",
"=============....@@@@@@@@@@@@@@@@@@@@@@@@@@@...=======",
"==========...OOOO@@@@@@@@@@@@@@@@@@@@@@@@@@@OOO....===",
"==========...OOOO@@@@@@@@@@@@@@@@@@@@@@@@@@@OOO....===",
"==========...OOOO@@@@@@@@@@@@@@@@@@@@@@@@@@@OOO....===",
"==========   OOOOOOO@@@@@@@@@@@@@@@@@@@@OOOOOOO    ===",
"==========   OOOOOOO@@@@@@@@@@@@@@@@@@@@OOOOOOO    ===",
"==========   OOOOOOO@@@@@@@@@@@@@@@@@@@@OOOOOOO    ===",
"==========   OOOOOOO@@@@@@@@@@@@@@@@@@@@OOOOOOO    ===",
"==========   OOOOOOOOOOOOOO*******OOOOOOOOOOOOO    ===",
"==========   OOOOOOOOOOOOOO*******OOOOOOOOOOOOO    ===",
"==========   OOOOOOOOOOOOOO*******OOOOOOOOOOOOO    ===",
"=======   +++....&&&OOOO&&&OOOOOOO&&&OOO&&&&...++++   ",
"=======   +++....&&&OOOO&&&OOOOOOO&&&OOO&&&&...++++   ",
"=======   +++....&&&OOOO&&&OOOOOOO&&&OOO&&&&...++++   ",
"=======   +++....&&&OOOO&&&OOOOOOO&&&OOO&&&&...++++   ",
"=======   ###    XXX********************XXXX   ####   ",
"=======   ###    XXX********************XXXX   ####   ",
"=======   ###    XXX********************XXXX   ####   ",
"==========   oooo###XXXXXXXXXXXXXXXXXXXX####ooo    ===",
"==========   oooo###XXXXXXXXXXXXXXXXXXXX####ooo    ===",
"==========   oooo###XXXXXXXXXXXXXXXXXXXX####ooo    ===",
"=======ooo   #######%%%%   %%%%%%%   %%%#######    ===",
"=======ooo   #######%%%%   %%%%%%%   %%%#######    ===",
"=======ooo   #######%%%%   %%%%%%%   %%%#######    ===",
"=======ooo   #######%%%%   %%%%%%%   %%%#######    ===",
"===oooo###XXXoooo#######ooo%%%%%%%ooo#######ooo=======",
"===oooo###XXXoooo#######ooo%%%%%%%ooo#######ooo=======",
"===oooo###XXXoooo#######ooo%%%%%%%ooo#######ooo=======",
"===oooo###XXX       oooo#############ooo       =======",
"===oooo###XXX       oooo#############ooo       =======",
"===oooo###XXX       oooo#############ooo       =======",
"=======      XXXXOOO....             OOOXXXXXXX    ===",
"=======      XXXXOOO....             OOOXXXXXXX    ===",
"=======      XXXXOOO....             OOOXXXXXXX    ===",
"=======      XXXXOOO....             OOOXXXXXXX    ===",
"=============ooooOOOOOOOOOO&&&&&&&OOOooo%%%%%%%oooo===",
"=============ooooOOOOOOOOOO&&&&&&&OOOooo%%%%%%%oooo===",
"=============ooooOOOOOOOOOO&&&&&&&OOOooo%%%%%%%oooo===",
"=============       OOOO@@@*******@@@ooo#######oooo===",
"=============       OOOO@@@*******@@@ooo#######oooo===",
"=============       OOOO@@@*******@@@ooo#######oooo===",
"=============       OOOO@@@*******@@@ooo#######oooo===",
"=============    $$$XXXX                ooooooo=======",
"=============    $$$XXXX                ooooooo=======",
"=============    $$$XXXX                ooooooo=======",
"=================   $$$$$$$XXX       =================",
"=================   $$$$$$$XXX       =================",
"=================   $$$$$$$XXX       =================",
"=================   XXXXXXX   ========================",
"=================   XXXXXXX   ========================",
"=================   XXXXXXX   ========================",
"=================   XXXXXXX   ========================",
"====================       ===========================",
"====================       ===========================",
"====================       ==========================="
};
