/* XPM */
static char *result[] = {
/* columns rows colors chars-per-pixel */
"54 64 13 1 ",
"  c black",
". c #682828",
"X c #383878",
"o c #784040",
"O c #C03838",
"+ c #A77843",
"@ c #F86848",
"# c #D89070",
"$ c #70A0C0",
"% c #F8C090",
"& c #B0B0D0",
"* c #E8E8F8",
"= c None",
/* pixels */
"==========...........................=================",
"==========...........................=================",
"==========...........................=================",
"=======...OOO@@@@@@@@@@@@@@@@@@@@@OOO...==============",
"=======...OOO@@@@@@@@@@@@@@@@@@@@@OOO...==============",
"=======...OOO@@@@@@@@@@@@@@@@@@@@@OOO...==============",
"=======...OOO@@@@@@@@@@@@@@@@@@@@@OOO...==============",
"=======...@@@@@@@@@@@@@@@@@@@@@@@@@@@...==============",
"=======...@@@@@@@@@@@@@@@@@@@@@@@@@@@...==============",
"=======...@@@@@@@@@@@@@@@@@@@@@@@@@@@...==============",
"===....OOO@@@@@@@@@@@@@@@@@@@@@@@@@@@OOO....==========",
"===....OOO@@@@@@@@@@@@@@@@@@@@@@@@@@@OOO....==========",
"===....OOO@@@@@@@@@@@@@@@@@@@@@@@@@@@OOO....==========",
"===    OOOOOO@@@@@@@@@@@@@@@@@@@@@OOOOOO    ==========",
"===    OOOOOO@@@@@@@@@@@@@@@@@@@@@OOOOOO    ==========",
"===    OOOOOO@@@@@@@@@@@@@@@@@@@@@OOOOOO    ==========",
"===    OOOOOO@@@@@@@@@@@@@@@@@@@@@OOOOOO    ==========",
"===    OOOOOOOOOOOOO*******OOOOOOOOOOOOO    ==========",
"===    OOOOOOOOOOOOO*******OOOOOOOOOOOOO    ==========",
"===    OOOOOOOOOOOOO*******OOOOOOOOOOOOO    ==========",
"   ++++...&&&OOOO&&&OOOOOOO&&&OOOO&&&...++++   =======",
"   ++++...&&&OOOO&&&OOOOOOO&&&OOOO&&&...++++   =======",
"   ++++...&&&OOOO&&&OOOOOOO&&&OOOO&&&...++++   =======",
"   ++++...&&&OOOO&&&OOOOOOO&&&OOOO&&&...++++   =======",
"   ####   XXX*********************XXX   ####   =======",
"   ####   XXX*********************XXX   ####   =======",
"   ####   XXX*********************XXX   ####   =======",
"===    ooo###XXXXXXXXXXXXXXXXXXXXX###ooo    ==========",
"===    ooo###XXXXXXXXXXXXXXXXXXXXX###ooo    ==========",
"===    ooo###XXXXXXXXXXXXXXXXXXXXX###ooo    ==========",
"===    ######%%%%   %%%%%%%   %%%%######    ooo=======",
"===    ######%%%%   %%%%%%%   %%%%######    ooo=======",
"===    ######%%%%   %%%%%%%   %%%%######    ooo=======",
"===    ######%%%%   %%%%%%%   %%%%######    ooo=======",
"=======ooo#######ooo%%%%%%%ooo#######oooXXXX###oooo===",
"=======ooo#######ooo%%%%%%%ooo#######oooXXXX###oooo===",
"=======ooo#######ooo%%%%%%%ooo#######oooXXXX###oooo===",
"=======      oooo#############oooo      XXXX###oooo===",
"=======      oooo#############oooo      XXXX###oooo===",
"=======      oooo#############oooo      XXXX###oooo===",
"===    XXXXXXOOOO             ....OOOXXX       =======",
"===    XXXXXXOOOO             ....OOOXXX       =======",
"===    XXXXXXOOOO             ....OOOXXX       =======",
"===    XXXXXXOOOO             ....OOOXXX       =======",
"===oooo%%%%%%ooooOOO&&&&&&&OOOOOOOOOOooo==============",
"===oooo%%%%%%ooooOOO&&&&&&&OOOOOOOOOOooo==============",
"===oooo%%%%%%ooooOOO&&&&&&&OOOOOOOOOOooo==============",
"===oooo######oooo@@@*******@@@OOOO      ==============",
"===oooo######oooo@@@*******@@@OOOO      ==============",
"===oooo######oooo@@@*******@@@OOOO      ==============",
"===oooo######oooo@@@*******@@@OOOO      ==============",
"=======oooooo                 XXXX$$$   ==============",
"=======oooooo                 XXXX$$$   ==============",
"=======oooooo                 XXXX$$$   ==============",
"=================       XXX$$$$$$$   =================",
"=================       XXX$$$$$$$   =================",
"=================       XXX$$$$$$$   =================",
"========================   XXXXXXX   =================",
"========================   XXXXXXX   =================",
"========================   XXXXXXX   =================",
"========================   XXXXXXX   =================",
"===========================       ====================",
"===========================       ====================",
"===========================       ===================="
};
