/* XPM */
static char *result[] = {
/* columns rows colors chars-per-pixel */
"64 64 5 1 ",
"  c #707888",
". c #9098A0",
"X c #98A0B0",
"o c #A8B0C0",
"O c #C0C8D8",
/* pixels */
"XXXXXXXX.XXXXXoXXX.XXXXX.XXXXXoXXX.XXXXX.XXXXXoXXX.XXXXX.XXXXXoX",
"XXXXXX X..XXXXXX XX.XX X..XXXXXX XX.XX X..XXXXXX XX.XX X..XXXXXX",
"XXXXXXXXX..XXXXXXXX.XXXXX..XXXXXXXX.XXXXX..XXXXXXXX.XXXXX..XXXXX",
"XOXXo.XXXX.....XXXX.o.XXXX.....XXXX.o.XXXX.....XXXX.o.XXXX.....X",
"XXXX. XXXXXXXX..XXX.. XXXXXXXX..XXX.. XXXXXXXX..XXX.. XXXXXXXX..",
"XXXX.....OXXoXX..XXX.....OXXoXX..XXX.....OXXoXX..XXX.....OXXoXX.",
"XXXXXX...XXoOoXX..XXXX...XXoOoXX..XXXX...XXoOoXX..XXXX...XXoOoXX",
"XXXXXXX...X oXXXX.XXXXX...X oXXXX.XXXXX...X oXXXX.XXXXX...X oXXX",
".XXXXXoXX..XXXXXX..XXXoXX..XXXXXX..XXXoXX..XXXXXX..XXXoXX..XXXXX",
"X..XXXXX X.XXX XXX..XXXX X.XXX XXX..XXXX X.XXX XXX..XXXX X.XXX X",
"X..XXXXXXX..XXXXXXX.XXXXXX..XXXXXXX.XXXXXX..XXXXXXX.XXXXXX..XXXX",
"X...XXXXXOX...XXXXXXXXXXXOX...XXXXXXXXXXXOX...XXXXXXXXXXXOX...XX",
"XX....XXXXX....X XXX..XXXXX....X XXX..XXXXX....X XXX..XXXXX....X",
"XOXX...XXXXXXX.XXXXX...XXXXXXX.XXXXX...XXXXXXX.XXXXX...XXXXXXX.X",
"XXXoXX..XXXXX....XOXXX..XXXXX....XOXXX..XXXXX....XOXXX..XXXXX...",
"XXX XXX..XXX XXX..XXXXX..XXX XXX..XXXXX..XXX XXX..XXXXX..XXX XXX",
"XXXXXXX..XXXXXoXo...XXX..XXXXXoXo...XXX..XXXXXoXo...XXX..XXXXXoX",
"..XX XXX..XXXXXoOo.. XXX..XXXXXoOo.. XXX..XXXXXoOo.. XXX..XXXXXo",
"X...XXXX.....XXXoX .XXXX.....XXXoX .XXXX.....XXXoX .XXXX.....XXX",
"XOXXo.XXXX.....XXXXXo.XXXXXX...XXXXXo.XXXXXX...XXXXXo.XXXXXX...X",
"XXXX. XXXXXXXX..XXXX. XXXXXXXX..XXXX. XXXXXXXX..XXXX. XXXXXXXX..",
"XXXX.....OXXoXX..XXX.....OXXoXX..XXX.....OXXoXX..XXX.....OXXoXX.",
"XXXXXX...XXoOoXX..XXXX...XXoOoXX..XXXX...XXoOoXX..XXXX...XXoOoXX",
"XXXXXXX...X oXXXX.XXXXX...X oXXXX.XXXXX...X oXXXX.XXXXX...X oXXX",
".XXXXXoXX..XXXXXX..XXXoXX..XXXXXX..XXXoXX..XXXXXX..XXXoXX..XXXXX",
"X..XXXXX X.XXX XXX..XXXX X.XXX XXX..XXXX X.XXX XXX..XXXX X.XXX X",
"X..XXXXXXX..XXXXXXX.XXXXXX..XXXXXXX.XXXXXX..XXXXXXX.XXXXXX..XXXX",
"X...XXXXXOX...XXXXXXXXXXXOX...XXXXXXXXXXXOX...XXXXXXXXXXXOX...XX",
"XX....XXXXX....X XXX..XXXXX....X XXX..XXXXX....X XXX..XXXXX....X",
"XOXX...XXXXXXX.XXXXX...XXXXXXX.XXXXX...XXXXXXX.XXXXX...XXXXXXX.X",
"XXXoXX..XXXXX....XOXXX..XXXXX....XOXXX..XXXXX....XOXXX..XXXXX...",
"XXX XXX..XXX XXX..XXXXX..XXX XXX..XXXXX..XXX XXX..XXXXX..XXX XXX",
"XXXXXXX..XXXXXoXo...XXX..XXXXXoXo...XXX..XXXXXoXo...XXX..XXXXXoX",
"..XX XXX..XXXXXoOo.. XXX..XXXXXoOo.. XXX..XXXXXoOo.. XXX..XXXXXo",
"X...XXXX.....XXXoX .XXXX.....XXXoX .XXXX.....XXXoX .XXXX.....XXX",
"XOXXo.XXXX.....XXXXXo.XXXXXX...XXXXXo.XXXXXX...XXXXXo.XXXXXX...X",
"XXXX. XXXXXXXX..XXXX. XXXXXXXX..XXXX. XXXXXXXX..XXXX. XXXXXXXX..",
"XXXX.....OXXoXX..XXX.....OXXoXX..XXX.....OXXoXX..XXX.....OXXoXX.",
"XXXXXX...XXoOoXX..XXXX...XXoOoXX..XXXX...XXoOoXX..XXXX...XXoOoXX",
"XXXXXXX...X oXXXX.XXXXX...X oXXXX.XXXXX...X oXXXX.XXXXX...X oXXX",
".XXXXXoXX..XXXXXX..XXXoXX..XXXXXX..XXXoXX..XXXXXX..XXXoXX..XXXXX",
"X..XXXXX X.XXX XXX..XXXX X.XXX XXX..XXXX X.XXX XXX..XXXX X.XXX X",
"X..XXXXXXX..XXXXXXX.XXXXXX..XXXXXXX.XXXXXX..XXXXXXX.XXXXXX..XXXX",
"X...XXXXXOX...XXXXXXXXXXXOX...XXXXXXXXXXXOX...XXXXXXXXXXXOX...XX",
"XX....XXXXX....X XXX..XXXXX....X XXX..XXXXX....X XXX..XXXXX....X",
"XOXX...XXXXXXX.XXXXX...XXXXXXX.XXXXX...XXXXXXX.XXXXX...XXXXXXX.X",
"XXXoXX..XXXXX....XOXXX..XXXXX....XOXXX..XXXXX....XOXXX..XXXXX...",
"XXX XXX..XXX XXX..XXXXX..XXX XXX..XXXXX..XXX XXX..XXXXX..XXX XXX",
"XXXXXXX..XXXXXoXo...XXX..XXXXXoXo...XXX..XXXXXoXo...XXX..XXXXXoX",
"..XX XXX..XXXXXoOo.. XXX..XXXXXoOo.. XXX..XXXXXoOo.. XXX..XXXXXo",
"X...XXXX.....XXXoX .XXXX.....XXXoX .XXXX.....XXXoX .XXXX.....XXX",
"XOXXo.XXXX.....XXXXXo.XXXXXX...XXXXXo.XXXXXX...XXXXXo.XXXXXX...X",
"XXXX. XXXXXXXX..XXXX. XXXXXXXX..XXXX. XXXXXXXX..XXXX. XXXXXXXX..",
"XXXX.....OXXoXX..XXX.....OXXoXX..XXX.....OXXoXX..XXX.....OXXoXX.",
"XXXXXX...XXoOoXX..XXXX...XXoOoXX..XXXX...XXoOoXX..XXXX...XXoOoXX",
"XXXXXXX...X oXXXX.XXXXX...X oXXXX.XXXXX...X oXXXX.XXXXX...X oXXX",
".XXXXXoXX..XXXXXX..XXXoXX..XXXXXX..XXXoXX..XXXXXX..XXXoXX..XXXXX",
"X..XXXXX X.XXX XXX..XXXX X.XXX XXX..XXXX X.XXX XXX..XXXX X.XXX X",
"X..XXXXXXX..XXXXXXX.XXXXXX..XXXXXXX.XXXXXX..XXXXXXX.XXXXXX..XXXX",
"X...XXXXXOX...XXXXXXXXXXXOX...XXXXXXXXXXXOX...XXXXXXXXXXXOX...XX",
"XX....XXXXX....X XXX..XXXXX....X XXX..XXXXX....X XXX..XXXXX....X",
"XOXX...XXXXXXX.XXXXX...XXXXXXX.XXXXX...XXXXXXX.XXXXX...XXXXXXX.X",
"XXXoXX..XXXXX....XOXXX..XXXXX....XOXXX..XXXXX....XOXXX..XXXXX...",
"XXX XXX..XXX XXX..XXXXX..XXX XXX..XXXXX..XXX XXX..XXXXX..XXX XXX"
};
