/* XPM */
static char *result[] = {
/* columns rows colors chars-per-pixel */
"64 64 49 1 ",
"  c #101018",
". c #1C1C24",
"X c #2A2C24",
"o c #363628",
"O c #282830",
"+ c #34343C",
"@ c #444830",
"# c #575B38",
"$ c #5C5C38",
"% c #5E643C",
"& c #404048",
"* c #4E5048",
"= c #5A5A4C",
"- c #404450",
"; c #5C6048",
": c #6A7048",
"> c #626250",
", c #6A6A5E",
"< c #747450",
"1 c #788048",
"2 c #828248",
"3 c #848A4C",
"4 c #8E8E54",
"5 c #848458",
"6 c #8C9250",
"7 c #8F9354",
"8 c #909450",
"9 c #9C9E54",
"0 c #949A5E",
"q c #A0A458",
"w c #A8A858",
"e c #ACAC5A",
"r c #B0B05C",
"t c #949474",
"y c #A6A660",
"u c #B4B660",
"i c #B8B860",
"p c #B0B474",
"a c #C0C064",
"s c #C8C868",
"d c #C0C275",
"f c #C8C87C",
"g c #D0D076",
"h c #BEBE8A",
"j c #CCCE8A",
"k c #D8D884",
"l c #E0E092",
"z c #E8E8A0",
"x c None",
/* pixels */
"xxxxxxxxxxxxxxxxxxxxxxxxxxxxxxxxxxxxxxxxxxxxxxxxxxxxxxxxxxxxxxxx",
"xxxxxxxxxxxxxxxxxxxxxxxxxxxxxxxxxxxxxxxxxxxxxxxxxxxxxxxxxxxxxxxx",
"xxxxxxxxxxxxxxxxxxxxxxxxxxxxxxxxxxxxxxxxxxxxxxxxxxxxxxxxxxxxxxxx",
"xxxxxxxxxxxxxxxxxxxxxxxxxxxxxxxxxxxxxxxxxxxxxxxxxxxxxxxxxxxxxxxx",
"xxxxxxxxxxxxxxxxxxxxxxxxxxxxxxxxxxxxxxxxxxxxxxxxxxxxxxxxxxxxxxxx",
"xxxxxxxxxxxxxxxxxxxxxxxxxxxxxxxxxxxxxxxxxxxxxxxxxxxxxxxxxxxxxxxx",
"xxxxxxxxxxxxxxxxxxxxxxxxxxxxxxxxxxxxxxxxxxxxxxxxxxxxxxxxxxxxxxxx",
"xxxxxxxxxxxxxxxxxxxxxxxxxxxxxxxxxxxxxxxxxxxxxxxxxxxxxxxxxxxxxxxx",
"xxxxxxxxxxxxxxxxxxxxx&&&&&&&&&&&&xxxxxxxxxxxxxxxxxxxxxxxxxxxxxxx",
"xxxxxxxxxxxxxxxxxxx&&&&&&&&&&&&&&&&&&&&&&&xxxxxxxxxxxxxxxxxxxxxx",
"xxxxxxxxxxxxxxxxx&&&&&&&&&&&&&&&&&&&&&&&&&&&&xxxxxxxxxxxxxxxxxxx",
"xxxxxxxxxxxxxxx&&&&&&&&&&&&&&&&&&&&&&&&&&&&&&&&xxxxxxxxxxxxxxxxx",
"xxxxxxxxxxxxx&&&&&=4wffw4=&&&&&&&&&&&&&&&&&&&&&&xxxxxxxxxxxxxxxx",
"xxxxxxxxxxxxx&&&&4wwfzzfww4&&&&&&&&&&&&&&&&&&&&&&&xxxxxxxxxxxxxx",
"xxxxxxxxxxxx&&&&=wwfzzzzfww=&&&&&&&&&&&&&&&&&&&&&&&xxxxxxxxxxxxx",
"xxxxxxxxxxx&&&&&4wfzzzzzzfw4&&&&&&&&&&&&&&&&&&&&&&&&xxxxxxxxxxxx",
"xxxxxxxxx&&&&&&&uuzzzzzzzzfw,&&&        .+&&&&&&&&&&&xxxxxxxxxxx",
"xxxxxxxx&&&&&&&&:uzzzzzzzzzfh&&&          .+&&&&&&&&&&&xxxxxxxxx",
"xxxxxxx&&&&&&&&u:uzzzzzzzzzzz,&&O           .+&&&&&&&&&xxxxxxxxx",
"xxxxxx&&&&&&&&&:uuzzzzzzzzzzzh&&&O            .+&&&&&&&&xxxxxxxx",
"xxxxx&&&&O+&&&u:uussssssglzzzzt&&&O             .+&&&&&&&xxxxxxx",
"xxxx&&&&O .&&&:uuussssssssglzzzt&&&O              .+&&&&&&xxxxxx",
"xxx&&&&O   +&&:uussssssssssskzzzt&&&O               .&&&&&&xxxxx",
"xx&&&&O    .&&ususssssssssssskzzzt&&&O              ...+&&&&xxxx",
"xx&&&O      &&ususssssu617sssskzzzt&&&O               ..&&&&xxxx",
"x&&&O       &&usussss611;&>yssskzzzt&&&O               ..&&&&xxx",
"x&&&        &&:ussssu111&&&&5ssskzzzt&&&O               .&&&&&xx",
"x&&         &&:sssss6111&&&&&5ssskzzzt&&&O              ..&&&&xx",
"x&          &&:sssss1111&OO&&&5ssskzzzt&&&O              ..&&&xx",
"x&          &&:sssss1111O  O&&&5ssskzzzt&&&O              .&&&xx",
"x&          &&:sssss1111    O&&&5ssskzzzt&&&+.             .&&xx",
"x&          &:usssss1111     O&&&5ssskzzzt&&&&+.           .&&&x",
"x&         .&:usssss111:      O&&&5ssskzzz01:*&&&&&&+.     .&&&x",
"x&         +&:sussss111*       O&&&5ssskzzj111:*&&&&&&+.    .&&x",
"x&        .&*:ssssss11:&        O&&&5ssskzz0111;&&&&&&&&O   .&&x",
"x&        +&:susssss11*&         O&&&5ssskzd11;&&&&&&&&&&O  .&&x",
"x&       .&&s6sssssu1:&&          O&&&5sssss1;&&&&,hzzp111X .&xx",
"x&+      +&&1usssss61*&&           O&&&5ssss;&&&&hzzzzzp11% .&xx",
"x&&.    .&&&6sssssu1:&&&            O&&&5ss5&&&&,zzzzzzz811X.&xx",
"xx&+    +&&&usssss61*&&&             O&&&55&&&&&hzzzzzzzw81%.&xx",
"xxx&.   &&&&sssssq11&&&&&<$           +&&&&&&&&&zzzzzkiwww31.&xx",
"xxx&+   &&&&ssssq111&&&&<ww$          .&&&&&&&&&zzzzksseww91&&xx",
"xxxx&.  &&&&qssq1111&&&&8www$          +&&&&&&&;zzzkssawww4:&&xx",
"xxxx&+  &&&&1qq11111&&&&18www$         .&&&&&&;1zzksssrwww=*&xxx",
"xxxxx&&&&&&&11111111&&&&118www$         &&&&&*16zksssq111:&&&xxx",
"xxxxx&&&&&&&11111111&&&&1118www$        &&&&&:1uksssq1111*&&xxxx",
"xxxxxx&&&&&&11111111&&&&;1118www$       &&&&*16ssssi1111:&&&xxxx",
"xxxxxx&&&&&&11111111&&&&&;1118www$      &&&&:1usssiw1111*&&&xxxx",
"xxxxxxx&&&&&11111111&&&&  @1118www$     +&&&1qsssiww111:&&&xxxxx",
"xxxxxxxx&&&&11111111&&&&   @1118www$    .&&&qsssiwww111*&&&xxxxx",
"xxxxxxxxx&&&;1111111&&&O    @1118www$    +&&issiwwww11:&&&xxxxxx",
"xxxxxxxxxx&&&;111111&&O      @1118www$   .&&wiiwwwww11*&&&xxxxxx",
"xxxxxxxxxxx&  @1111%&O        @1118www$   O&wwwwwwww1;&&&xxxxxxx",
"xxxxxxxxxxxx   @111XO          @1118www$   Owwwwwwww;&&&xxxxxxxx",
"xxxxxxxxxxxx-   @1%             X%118w2o    o2wwww4=&&&xxxxxxxxx",
"xxxxxxxxxxxxx-   @X               X%1#        o24=&&&&xxxxxxxxxx",
"xxxxxxxxxxxxxx-                                     &xxxxxxxxxxx",
"xxxxxxxxxxxxxxx-.                                 &&&xxxxxxxxxxx",
"xxxxxxxxxxxxxxxx&&&&                            &&&&xxxxxxxxxxxx",
"xxxxxxxxxxxxxxxxxxx&&&&&&&&&&&&&      &&&&&&&&&&&&xxxxxxxxxxxxxx",
"xxxxxxxxxxxxxxxxxxxxxxx&&&&&&&&&&&&&&&&&&&&&&xxxxxxxxxxxxxxxxxxx",
"xxxxxxxxxxxxxxxxxxxxxxxxxxxxxxxxxxxxxxxxxxxxxxxxxxxxxxxxxxxxxxxx",
"xxxxxxxxxxxxxxxxxxxxxxxxxxxxxxxxxxxxxxxxxxxxxxxxxxxxxxxxxxxxxxxx",
"xxxxxxxxxxxxxxxxxxxxxxxxxxxxxxxxxxxxxxxxxxxxxxxxxxxxxxxxxxxxxxxx"
};
