/* XPM */
static char *result[] = {
/* columns rows colors chars-per-pixel */
"64 64 74 1 ",
"  c black",
". c #000603",
"X c #060606",
"o c #070707",
"O c #000800",
"+ c #000C07",
"@ c gray3",
"# c #061203",
"$ c #071303",
"% c gray8",
"& c #1E1E1E",
"* c gray12",
"= c #11290B",
"- c #142C0D",
"; c #082712",
": c #1D291A",
"> c #1F2B1B",
", c #222E1D",
"< c #21391A",
"1 c #243C1C",
"2 c #222222",
"3 c #282828",
"4 c #2C2C2C",
"5 c #263221",
"6 c #2D3929",
"7 c #2A4220",
"8 c #FF537C",
"9 c #FF657A",
"0 c #450096",
"q c #6800AE",
"w c #7600AA",
"e c #741BA8",
"r c #941CBE",
"t c #8B2BAA",
"y c #8027B0",
"u c #8E22B3",
"i c #8729B9",
"p c #9D3DB6",
"a c #A343BA",
"s c #A646BC",
"d c #A949BE",
"f c #FF5082",
"g c #FF6E80",
"h c #F86088",
"j c #FF6589",
"k c #FF6B8D",
"l c #FF6E8F",
"z c #FF7182",
"x c #FF689A",
"c c #8C1BC6",
"v c #971FC0",
"b c #9A22C2",
"n c #9D25C4",
"m c #983FC0",
"M c #A63AC3",
"N c #B53DD4",
"B c #AC40C7",
"V c #B94DC8",
"C c #B840D6",
"Z c #B14CD0",
"A c #BB43D8",
"S c gray54",
"D c #8D8D8D",
"F c #909090",
"G c #979797",
"H c #9A9A9A",
"J c #A4A4A4",
"K c gray72",
"L c #F890A7",
"P c #FF92AE",
"I c #FFAAC6",
"U c #FFDBDC",
"Y c white",
"T c None",
/* pixels */
"TTTTTTTTTTTTTTTTTTTTTTTTTTTTTTTTTTTTTTTTTTTTTTTTTTTTTTTTTTTTTTTT",
"TTTTTTTTTTTTTTTTTTTTTTTTTTTTTTTTTTTTTTTTTTTTTTTTTTTTTTTTTTTTTTTT",
"TTTTTTTTTTTTTTTTTTTTTTTTTTTTTTTTTTTTTTTTTTTTTTTTTTTTTTTTTTTTTTTT",
"TTTTTTTTTTTTTTTTTTTTTTTTTTTTTTTTTTTTTTTTTTTTTTTTTTTTTTTTTTTTTTTT",
"TTTTTTTTTTTTTTTTTTTTTTTTTTTTTTTTTTTTTTTTTTTTTTTTTTTTTTTTTTTTTTTT",
"TTTTTTTTTTTTTTTTTTTTTTTTTTTTTTTTTTTTTTTTTTTTTTTTTTTTTTTTTTTTTTTT",
"TTTTTTTTTTTTTTTTTTTTTTTTTTTTTTTTTTTTTTTTTTTTTTTTTTTTTTTTTTTTTTTT",
"TTTTTTTTTTTTTTTTTTTTTTTTTTTTTTTTTTTTTTTTTTTTTTTTTTTTTTTTTTTTTTTT",
"TTTTTTTTTTTTTTTTTTTTTTTTTTTTTTTTTTTTTTTTTTTTTTTTTTTTTTTTTTTTTTTT",
"TTTTTTTTTTTTTTTTTTTTTTTTTTTTTTTTTTTTTTTTTTTTTTTTTTTTTTTTTTTTTTTT",
"TTTTTTTTTTTTTTTTTTTTTTTTTTTTTTTTTTTTTTTTTTTTTTTTTTTTTTTTTTTTTTTT",
"TTTTTTTTTTTTTTTTTTTTTTTTTTTTTTTTTTTTTTTTTTTTTTTTTTTTTTTTTTTTTTTT",
"TTTTTTTTTTTTTTTTTTTTTTTTTTTTTTTTTTTTTTTTTTTTTTTTTTTTTTTTTTTTTTTT",
"TTTTTTTTTTTTTTTTTTTTTTTTTTTTTTTTTTTTTTTTTTTTTTTTTTTTTTTTTTTTTTTT",
"TTTTTTTTTTTTTTTTTTTTTTTTTTTTTTTTTTTTTTTTTTTTTTTTTTTTTTTTTTTTTTTT",
"TTTTTTTTTTTTTTTTTTTTTTTTTTTTTTTTTTTTTTTTTTTTTTTTTTTTTTTTTTTTTTTT",
"TTTTTTTTTTTTTTTTTTTTTTTTTTTTTTTTTTTTTTTTTTTTTTTTTTTTTTTTTTTTTTTT",
"TTTTTTTTTTTTTTTTTTTTTTTTTTTTTTTTTTTTTTTTTTTTTTTTTTTTTTTTTTTTTTTT",
"TTTTTTTTTTTTTTTTTTTTTTTTTTTTTTTTTTTTTTTTTTTTTTTTTTTTTTTTTTTTTTTT",
"TTTTTTTTTTTTTTTTTTTTTTTTTTTTTTTTTTTTTTTTTTTTTTTTTTTTTTTTTTTTTTTT",
"TTTTTTTTTTTTTTTTTTTTTTTTTTTT$$>>>>$$TTTTTTTTTTTTTTTTTTTTTTTTTTTT",
"TTTTTTTTTTTTTTTTTTTTTTTTTTTT$$>>>>$$TTTTTTTTTTTTTTTTTTTTTTTTTTTT",
"TTTTTTTTTTTTTTTTTTTTTTTT..;;rruuuubb;;++TTTTTTTTTTTTTTTTTTTTTTTT",
"TTTTTTTTTTTTTTTTTTTTTTTT..;;rruuuubb;;++TTTTTTTTTTTTTTTTTTTTTTTT",
"TTTTTTTTTTTTTTTTTTTTTT  II88ZZppsseekkxxOOTTTTTTTTTTTTTTTTTTTTTT",
"TTTTTTTTTTTTTTTTTTTTTT  II88ZZppsseekkxxOOTTTTTTTTTTTTTTTTTTTTTT",
"TTTTTTTTTTTTTTTTTTTTTTPPLLUUYYVVppmmgghhffTTTTTTTTTTTTTTTTTTTTTT",
"TTTTTTTTTTTTTTTTTTTTTTPPLLUUYYVVppmmgghhffTTTTTTTTTTTTTTTTTTTTTT",
"TTTTTTTTTTTTTTTTTTTT++jj99iiVVMMBBdd00zzll++TTTTTTTTTTTTTTTTTTTT",
"TTTTTTTTTTTTTTTTTTTT++jj99iiVVMMBBdd00zzll++TTTTTTTTTTTTTTTTTTTT",
"TTTTTTTTTTTTTTTTTTTT>>cceeaaNN==<<vvttyyqq,,TTTTTTTTTTTTTTTTTTTT",
"TTTTTTTTTTTTTTTTTTTT>>cceeaaNN==<<vvttyyqq,,TTTTTTTTTTTTTTTTTTTT",
"TTTTTTTTTTTTTTTTTTTT33--AACC==YYGG11nnww7733TTTTTTTTTTTTTTTTTTTT",
"TTTTTTTTTTTTTTTTTTTT33--AACC==YYGG11nnww7733TTTTTTTTTTTTTTTTTTTT",
"TTTTTTTTTTTTTTTTTTTT  YY##::**GGJJ446655KKXXTTTTTTTTTTTTTTTTTTTT",
"TTTTTTTTTTTTTTTTTTTT  YY##::**GGJJ446655KKXXTTTTTTTTTTTTTTTTTTTT",
"TTTTTTTTTTTTTTTTTTTTTT  YYYYYY@@22JJHHJJ%%TTTTTTTTTTTTTTTTTTTTTT",
"TTTTTTTTTTTTTTTTTTTTTT  YYYYYY@@22JJHHJJ%%TTTTTTTTTTTTTTTTTTTTTT",
"TTTTTTTTTTTTTTTTTTTTTTXXSSYYYYYYDDFFHHJJXXTTTTTTTTTTTTTTTTTTTTTT",
"TTTTTTTTTTTTTTTTTTTTTTXXSSYYYYYYDDFFHHJJXXTTTTTTTTTTTTTTTTTTTTTT",
"TTTTTTTTTTTTTTTTTTTTTTTTXXooGGDDHHJJ%%XXTTTTTTTTTTTTTTTTTTTTTTTT",
"TTTTTTTTTTTTTTTTTTTTTTTTXXooGGDDHHJJ%%XXTTTTTTTTTTTTTTTTTTTTTTTT",
"TTTTTTTTTTTTTTTTTTTTTTTTTTTTXX&&&&XXTTTTTTTTTTTTTTTTTTTTTTTTTTTT",
"TTTTTTTTTTTTTTTTTTTTTTTTTTTTXX&&&&XXTTTTTTTTTTTTTTTTTTTTTTTTTTTT",
"TTTTTTTTTTTTTTTTTTTTTTTTTTTTTTTTTTTTTTTTTTTTTTTTTTTTTTTTTTTTTTTT",
"TTTTTTTTTTTTTTTTTTTTTTTTTTTTTTTTTTTTTTTTTTTTTTTTTTTTTTTTTTTTTTTT",
"TTTTTTTTTTTTTTTTTTTTTTTTTTTTTTTTTTTTTTTTTTTTTTTTTTTTTTTTTTTTTTTT",
"TTTTTTTTTTTTTTTTTTTTTTTTTTTTTTTTTTTTTTTTTTTTTTTTTTTTTTTTTTTTTTTT",
"TTTTTTTTTTTTTTTTTTTTTTTTTTTTTTTTTTTTTTTTTTTTTTTTTTTTTTTTTTTTTTTT",
"TTTTTTTTTTTTTTTTTTTTTTTTTTTTTTTTTTTTTTTTTTTTTTTTTTTTTTTTTTTTTTTT",
"TTTTTTTTTTTTTTTTTTTTTTTTTTTTTTTTTTTTTTTTTTTTTTTTTTTTTTTTTTTTTTTT",
"TTTTTTTTTTTTTTTTTTTTTTTTTTTTTTTTTTTTTTTTTTTTTTTTTTTTTTTTTTTTTTTT",
"TTTTTTTTTTTTTTTTTTTTTTTTTTTTTTTTTTTTTTTTTTTTTTTTTTTTTTTTTTTTTTTT",
"TTTTTTTTTTTTTTTTTTTTTTTTTTTTTTTTTTTTTTTTTTTTTTTTTTTTTTTTTTTTTTTT",
"TTTTTTTTTTTTTTTTTTTTTTTTTTTTTTTTTTTTTTTTTTTTTTTTTTTTTTTTTTTTTTTT",
"TTTTTTTTTTTTTTTTTTTTTTTTTTTTTTTTTTTTTTTTTTTTTTTTTTTTTTTTTTTTTTTT",
"TTTTTTTTTTTTTTTTTTTTTTTTTTTTTTTTTTTTTTTTTTTTTTTTTTTTTTTTTTTTTTTT",
"TTTTTTTTTTTTTTTTTTTTTTTTTTTTTTTTTTTTTTTTTTTTTTTTTTTTTTTTTTTTTTTT",
"TTTTTTTTTTTTTTTTTTTTTTTTTTTTTTTTTTTTTTTTTTTTTTTTTTTTTTTTTTTTTTTT",
"TTTTTTTTTTTTTTTTTTTTTTTTTTTTTTTTTTTTTTTTTTTTTTTTTTTTTTTTTTTTTTTT",
"TTTTTTTTTTTTTTTTTTTTTTTTTTTTTTTTTTTTTTTTTTTTTTTTTTTTTTTTTTTTTTTT",
"TTTTTTTTTTTTTTTTTTTTTTTTTTTTTTTTTTTTTTTTTTTTTTTTTTTTTTTTTTTTTTTT",
"TTTTTTTTTTTTTTTTTTTTTTTTTTTTTTTTTTTTTTTTTTTTTTTTTTTTTTTTTTTTTTTT",
"TTTTTTTTTTTTTTTTTTTTTTTTTTTTTTTTTTTTTTTTTTTTTTTTTTTTTTTTTTTTTTTT"
};
