/* XPM */
static char *result[] = {
/* columns rows colors chars-per-pixel */
"55 64 10 1 ",
"  c black",
". c gray25",
"X c #606060",
"o c #884888",
"O c #807898",
"+ c #B858D0",
"@ c #B098C0",
"# c #D8C8D8",
"$ c #E8E8F8",
"% c None",
/* pixels */
"%%%%%%%%%%%%%%XXX  %%%%%%%%%%%%%%%%%  XXX%%%%%%%%%%%%%%",
"%%%%%%%%%%%%%%XXX  %%%%%%%%%%%%%%%%%  XXX%%%%%%%%%%%%%%",
"%%%%%%%%%%%%XX$$$$$   %%%%%%%%%%%   $$$$$XX%%%%%%%%%%%%",
"%%%%%%%%%%%%XX$$$$$   %%%%%%%%%%%   $$$$$XX%%%%%%%%%%%%",
"%%%%%%%%%%%%XX$$$$$   %%%%%%%%%%%   $$$$$XX%%%%%%%%%%%%",
"%%%%%%%%%%%%..$$$$$   XXXXXXXXXXX   $$$$$..%%%%%%%%%%%%",
"%%%%%%%%%%%%..$$$$$   XXXXXXXXXXX   $$$$$..%%%%%%%%%%%%",
"%%%%%%%%%%%%..###$$...##$$$$$$$##...$$###..%%%%%%%%%%%%",
"%%%%%%%%%%%%..###$$...##$$$$$$$##...$$###..%%%%%%%%%%%%",
"%%%%%%%%%%%%%%...$$$$$XX$$$$$$$XX$$$$$...%%%%%%%%%%%%%%",
"%%%%%%%%%%%%%%...$$$$$XX$$$$$$$XX$$$$$...%%%%%%%%%%%%%%",
"%%%%%%%%%%%%%%...$$$$$XX$$$$$$$XX$$$$$...%%%%%%%%%%%%%%",
"%%%%%%%%%%%%%%...##$$$##$$$$$$$##$$$##...%%%%%%%%%%%%%%",
"%%%%%%%%%%%%%%...##$$$##$$$$$$$##$$$##...%%%%%%%%%%%%%%",
"%%%%%%%%%%%%%%...##$$$$$$$$$$$$$$$$$##...%%%%%%%%%%%%%%",
"%%%%%%%%%%%%%%...##$$$$$$$$$$$$$$$$$##...%%%%%%%%%%%%%%",
"%%%%%%%%%%%%%%...##$$$$$$$$$$$$$$$$$##...%%%%%%%%%%%%%%",
"%%%%%%%%%%%%..#####$$$$$$$$$$$$$$$$$#####..%%%%%%%%%%%%",
"%%%%%%%%%%%%..#####$$$$$$$$$$$$$$$$$#####..%%%%%%%%%%%%",
"%%%%%%%%%%%%..########$$$$$$$$$$$########..%%%%%%%%%%%%",
"%%%%%%%%%%%%..########$$$$$$$$$$$########..%%%%%%%%%%%%",
"%%%%%%%%%%%%  ########$$$$$$$$$$$########  %%%%%%%%%%%%",
"%%%%%%%%%%%%  ########$$$$$$$$$$$########  %%%%%%%%%%%%",
"%%%%%%%%%%%%  ########$$$$$$$$$$$########  %%%%%%%%%%%%",
"%%%%%%%%%%%%  @@@$$#####@@###@@#####$$@@@  %%%%%%%%%%%%",
"%%%%%%%%%%%%  @@@$$#####@@###@@#####$$@@@  %%%%%%%%%%%%",
"%%%%%%%%%%%%%%...$$ooo##@@###@@##ooo$$...%%%%%%%%%%%%%%",
"%%%%%%%%%%%%%%...$$ooo##@@###@@##ooo$$...%%%%%%%%%%%%%%",
"%%%%%%%%%%%%..   @@   $$#######$$   @@   %%%%%%%%%%%%%%",
"%%%%%%%%%%%%..   @@   $$#######$$   @@   %%%%%%%%%%%%%%",
"%%%%%%%%%%%%..   @@   $$#######$$   @@   %%%%%%%%%%%%%%",
"%%%%%%%.....#####  @@@###########@@@  ###..%%%%%%%%%%%%",
"%%%%%%%.....#####  @@@###########@@@  ###..%%%%%%%%%%%%",
"%%.....@@@##@@...##     @@###@@     #######.....%%%%%%%",
"%%.....@@@##@@...##     @@###@@     #######.....%%%%%%%",
"%%.....@@@##@@...##     @@###@@     #######.....%%%%%%%",
"..###@@@@@OO..%%%..@@@OO       OO@@@.....@@##@@@.....%%",
"..###@@@@@OO..%%%..@@@OO       OO@@@.....@@##@@@.....%%",
".....OO###  %%%%%  OOO@@OO@@@OO@@OOO  %%%..OO@@@@@###..",
".....OO###  %%%%%  OOO@@OO@@@OO@@OOO  %%%..OO@@@@@###..",
"  @@@OO...  %%%%%%%   @@@@...@@@@   ..%%%%%  ###OO.....",
"  @@@OO...  %%%%%%%   @@@@...@@@@   ..%%%%%  ###OO.....",
"  @@@OO...  %%%%%%%   @@@@...@@@@   ..%%%%%  ###OO.....",
"  ###..%%%%%%%%%%..OOO....OOO....OOO@@...%%  ...OO@@@  ",
"  ###..%%%%%%%%%%..OOO....OOO....OOO@@...%%  ...OO@@@  ",
"%%     %%%%%%%...@@OOOOOoooooooOOOOO@@@@@..%%%%%..###  ",
"%%     %%%%%%%...@@OOOOOoooooooOOOOO@@@@@..%%%%%..###  ",
"%%%%%%%%%%%%  @@@@@...oo+++++++oo...@@###  %%%%%     %%",
"%%%%%%%%%%%%  @@@@@...oo+++++++oo...@@###  %%%%%     %%",
"%%%%%%%%%%%%  @@@@@...oo+++++++oo...@@###  %%%%%     %%",
"%%%%%%%%%%%%  ###@@...+++++++++++...#####  %%%%%%%%%%%%",
"%%%%%%%%%%%%  ###@@...+++++++++++...#####  %%%%%%%%%%%%",
"%%%%%%%%%%%%  #####@@@  +++++++  @@@##...%%%%%%%%%%%%%%",
"%%%%%%%%%%%%  #####@@@  +++++++  @@@##...%%%%%%%%%%%%%%",
"%%%%%%%%%%%%  #####@@@  +++++++  @@@##...%%%%%%%%%%%%%%",
"%%%%%%%%%%%%%%   #####OO  ...  ..     ...%%%%%%%%%%%%%%",
"%%%%%%%%%%%%%%   #####OO  ...  ..     ...%%%%%%%%%%%%%%",
"%%%%%%%%%%%%%%...     ..%%%%%%%..@@@OO...%%%%%%%%%%%%%%",
"%%%%%%%%%%%%%%...     ..%%%%%%%..@@@OO...%%%%%%%%%%%%%%",
"%%%%%%%%%%%%%%...OO@@@..%%%%%%%%%.....%%%%%%%%%%%%%%%%%",
"%%%%%%%%%%%%%%...OO@@@..%%%%%%%%%.....%%%%%%%%%%%%%%%%%",
"%%%%%%%%%%%%%%...OO@@@..%%%%%%%%%.....%%%%%%%%%%%%%%%%%",
"%%%%%%%%%%%%%%%%%.....%%%%%%%%%%%%%%%%%%%%%%%%%%%%%%%%%",
"%%%%%%%%%%%%%%%%%.....%%%%%%%%%%%%%%%%%%%%%%%%%%%%%%%%%"
};
