/* XPM */
static char *result[] = {
/* columns rows colors chars-per-pixel */
"64 64 12 1 ",
"  c #386048",
". c #404048",
"X c #507858",
"o c #709868",
"O c #707888",
"+ c #88B080",
"@ c #9098A0",
"# c #98A0B0",
"$ c #A8D090",
"% c #C8F0A8",
"& c #A8B0C0",
"* c #C0C8D8",
/* pixels */
"@###########*#@@@##XXXX###XXX###*@##XXXX###XXX#@@@###########*#@",
"@@#O###@@#####@@@@X$$$$XXX+ooX#O@@@X$$$$XXX+ooX@@@@#O###@@#####@",
"#@#####@@@#####XXX+++$$$$+++++XXXXX+++$$$$+++++XXX@#####@@@#####",
"@@@@#*###@@##XX+o+$%$$$$$o+++++++o+$%$$$$$o+++++++  @#*###@@####",
"###@@#####@@X++o$$%%%$$oo+++o++oo$$%%%$$oo+++o+++++X @#####@@###",
"#&#&@@@###@X+++$$%$%$$$$++$++oo$$$%$%$$$$++$++oo++++  @@###@@###",
"##&*&@@O##X++++o$$$$$$$$$$o$o$$oo$$$$$$$$$$o$o$$o+++o  @O###@@##",
"###&#O@##Xo+$+$$$$$$$$oo+$$o$$$$$$$$$$$oo+$$o$$$$$++oXX ####@@@@",
"@@#####XXoo++$+$$$+++o$%$+o$$$$$$$$+++o$%$+o$$$$$+++Xo   @######",
"#@@###XX++o+++$$++oo+$%%%$$$$$$$$++oo+$%%%$$$$$$$++ooXX   ######",
"##@@#XX++oo++++++o+$$%$%$$$$$$$+++o+$$%$%$$$$$$$++o++XXX   @@*##",
"&##@ X++ooooo++++o$$$$%$$$$+++++++o$$$$%$$$$++++++o++oXXX   @##&",
"#### X++oooooo++o$$$$$$$$$+ooo+++o$$$$$$$$$+ooo++o+++ooX    @@#O",
"### X++XXooooooo$$$o+$$$$o$$$$ooo$$$o+$$$$o$$$$oo+++o+oXX    @@#",
"#O XXXXXoooXoo$$$$$$$+ooo$$$$$$$$$$$$$+ooo$$$$$$$+++++ooXX   #@#",
"## XXXXoooXoooo$$$++++o+$$$$$$o$$$$++++o+$$$$$$o$+++++ooXX   #@@",
"O XX XoooXXooo++o$$+oo+$$$$$$o+$+o$$+oo+$$$$$$o++o++XXoXoXX   .O",
". X XXoXXX++o++++ooo$$$$$$+oo+++++ooo$$$$$$+oo++++oooXXXX X   ..",
".   XoXXX++ooo+++o+++$$$$+++++++++o+++$$$$++++++++o+ooX  X    ..",
".. XXX XX++oooo+o+$%%%$$$o+++++++o+$%%%$$$o++++++o++ooXX     ...",
".. X  XX++ooo+oo$$%$%$$oo+++o+++o$$%$%$$oo+++o++o++ooooX     ...",
"O.    XXoooo+oo$$%$%$$$$++$++ooo$$%$%$$$$++$++oo+++ooXoXX    ...",
"O.   XXoooo$o$$o$$$$$$$$$$o$o$$$o$$$$$$$$$$o$o$$o++oXXXXX   ....",
"O..  Xoooo$o$$$$$$$$$$oo+$$o$$$o$$$$$$$oo+$$o$$$$$+oXXX  X  ....",
"O.. Xoooooo++$$$$$+++o$$$+o$$$$$$$$+++o$$$+o$$$$$$+ooXXX X  ....",
"O. XXoo+Xoo+$+$$++oo+$$$$$$$$$$$$++oo+$$$$$$$$$$$++ooXXX X   ...",
".. XooXXoo+++$+++o+$$$$$$$$$$$$$++o+$$$$$$$$$$$$++o+oXXXX X  ...",
". XXoXXXoo+++++++o$$$$$$$$$+++++++o$$$$$$$$$++++++o+ooX X     ..",
". XXXXXo+o++oo++o$$$$$$$$$+ooo+++o$$$$$$$$$+ooo++o+++oX       ..",
". XXXXX++oooo$oo$$$o+$$$$o$$$$o+o$$$o+$$$$o$$$$oo+++ooo X     ..",
".. XXXo+oooo++$$$$$$$+ooo$$$$$$o$$$$$$+ooo$$$$$$$++++ooX     ...",
"O. X X++oXoo+$o$$$++++oo$$$$$$o$$$$++++oo$$$$$$o$$+++oXo      ..",
"O XX XoooXXooo++o$$+oo+$$$$$$o+++o$$+oo+$$$$$$o++o++XXoXoXX   .O",
". X XXoXXX++o++++ooo$$$$$$+oo+++++ooo$$$$$$+oo++++oooXXXX X   ..",
".   XoXXX++ooo+++o+++$$$$+++++++++o+++$$$$++++++++o+ooX  X    ..",
".. XXX XX++oooo+o+$%%%$$$o+++++++o+$%%%$$$o++++++o++ooXX     ...",
".. X  XX++ooo+oo$$%$%$$oo+++o++oo$$%$%$$oo+++o++o++ooooX     ...",
"O.    XXoooo+oo$$%$%$$$$++$++oo$$$%$%$$$$++$++oo+++ooXoXX    ...",
"O.   XXoooo$o$$o$$$$$$$$$$o$o$$oo$$$$$$$$$$o$o$$o++oXXXXX   ....",
"O..  Xoooo$o$$$$$$$$$$oo+$$o$$$$$$$$$$$oo+$$o$$$$$+oXXX  X  ....",
"O.. Xoooooo++$$$$$+++o$$$+o$$$$$$$$+++o$$$+o$$$$$$+ooXXX X  ....",
"O. XXoo+Xoo+$+$$++oo+$$$$$$$$$$$$++oo+$$$$$$$$$$$++ooXXX X   ...",
".. XooXXoo+++$+++o+$$$$$$$$$$$$+++o+$$$$$$$$$$$$++o+oXXXX X  ...",
". XXoXXXoo+++++++o$$$$$$$$$+++++++o$$$$$$$$$++++++o+ooX X     ..",
". XXXXXo+o++oo++o$$$$$$$$$+ooo+++o$$$$$$$$$+ooo++o+++oX       ..",
". XXXXX++oooo$oo$$$o+$$$$o$$$$ooo$$$o+$$$$o$$$$oo+++ooo X     ..",
".. XXXo+oooo++$$$$$$$+ooo$$$$$$$$$$$$$+ooo$$$$$$$++++ooX     ...",
"O. X X++oXoo+$o$$$++++oo$$$$$$o$$$$++++oo$$$$$$o$$+++oXo      ..",
"O. X X+oXXoo+oooo$$+oo++oo$$$ooooo$$+oo++oo$$$oooo++ooXXX     ..",
"O.. XXoXXoo+oXooooXoooo+++ooooXooooXoooo+++ooooXoooooXX X     ..",
"O.. XooXXoXoXXXoooXooooooooooXXooooXooooooooooXXooooXXXX X   ...",
"O. XXoXXXXooXXXXoXXXooooooXXXXXXXoXXXooooooXXXXXXXooXX X     ...",
".. XXoXXXXoXXoXXXXXXXXXoooXXXXXXXXXXXXXXoooXXXXXXXXXXX XX    ...",
". XXoX XXXoXXoXXXXXXoXXXXXXXXXXXXXXXXoXXXXXXXXXXX XXX   X   ....",
". XXX  XXXXXXXoXXX XXXXXX XXXXXXXXX XXXXXX XXXXXX XXX       ....",
". XXX  XXoXXXoXXXX XoXX X XXXXXXXXX XoXX X XXXXXX  XX        ...",
".  X   XXXXXoXo XX XoXX X XXXXX  XX XoXX X XXXXXX  XX        ..O",
"..    XXXX XooX XX  XoX X XoXX   XX  XoX X XoXX XX           ..#",
"...   XXXX XoXX XX  oXX X XXXX   XX  oXX X XXXX XX          ...#",
"O..   XXX  XoXX  X  XXX   XoXX    X  XXX   XoXX XX          ..O&",
"O...   XX  XXXX      X    XXXX        X    XXXX XX         ...#O",
"#O....      XX   ....      XX     ....      XX  XX       ....O@#",
"#O#O......     ..........    .............    ..      .....OO#@#",
"#####O...........OOOOO............OOOOO.................OO####@@"
};
