/* XPM */
static char *result[] = {
/* columns rows colors chars-per-pixel */
"47 64 15 1 ",
"  c black",
". c #682828",
"X c #383878",
"o c #784040",
"O c #C03838",
"+ c #A87840",
"@ c #F86848",
"# c #B89838",
"$ c #D89070",
"% c #F8D858",
"& c #70A0C0",
"* c #F8C090",
"= c #B0B0D0",
"- c #E8E8F8",
"; c None",
/* pixels */
";;;;;;;...........................;;;;;;;;;;;;;",
";;;;;;;...........................;;;;;;;;;;;;;",
";;;;;;;...........................;;;;;;;;;;;;;",
";;;....OOO@@@@@@@@@@@@@@@@@@@@OOOO...;;;;;;;;;;",
";;;....OOO@@@@@@@@@@@@@@@@@@@@OOOO...;;;;;;;;;;",
";;;....OOO@@@@@@@@@@@@@@@@@@@@OOOO...;;;;;;;;;;",
";;;....OOO@@@@@@@@@@@@@@@@@@@@OOOO...;;;;;;;;;;",
";;;....@@@@@@@@@@@@@@@@@@@@@@@@@@@OOO...;;;;;;;",
";;;....@@@@@@@@@@@@@@@@@@@@@@@@@@@OOO...;;;;;;;",
";;;....@@@@@@@@@@@@@@@@@@@@@@@@@@@OOO...;;;;;;;",
"...OOOO@@@@@@@@@@@@@@@@@@@@@@@@@@@---.......;;;",
"...OOOO@@@@@@@@@@@@@@@@@@@@@@@@@@@---.......;;;",
"...OOOO@@@@@@@@@@@@@@@@@@@@@@@@@@@---.......;;;",
"...OOOOOOO@@@@@@@@@@@@@@@@@@@@OOOO---...----   ",
"...OOOOOOO@@@@@@@@@@@@@@@@@@@@OOOO---...----   ",
"...OOOOOOO@@@@@@@@@@@@@@@@@@@@OOOO---...----   ",
"...OOOOOOO@@@@@@@@@@@@@@@@@@@@OOOO---...----   ",
"...OOOOOOOOOOOOOOOOOOOOOOOOOOOOOOO===OOO----   ",
"...OOOOOOOOOOOOOOOOOOOOOOOOOOOOOOO===OOO----   ",
"...OOOOOOOOOOOOOOOOOOOOOOOOOOOOOOO===OOO----   ",
"   ....OOOOOOOOOOOOOOOOOOOOOOOOOOOOOO===----   ",
"   ....OOOOOOOOOOOOOOOOOOOOOOOOOOOOOO===----   ",
"   ....OOOOOOOOOOOOOOOOOOOOOOOOOOOOOO===----   ",
"   ....OOOOOOOOOOOOOOOOOOOOOOOOOOOOOO===----   ",
"   oooo......OOOOOOOOOOOOOOOOO==========    ;;;",
"   oooo......OOOOOOOOOOOOOOOOO==========    ;;;",
"   oooo......OOOOOOOOOOOOOOOOO==========    ;;;",
"   oooooooooo.....................XXXooo;;;;;;;",
"   oooooooooo.....................XXXooo;;;;;;;",
"   oooooooooo.....................XXXooo;;;;;;;",
";;;    ooo$$$****+++$$$$$$$   $$$$$$$ooo;;;;;;;",
";;;    ooo$$$****+++$$$$$$$   $$$$$$$ooo;;;;;;;",
";;;    ooo$$$****+++$$$$$$$   $$$$$$$ooo;;;;;;;",
";;;    ooo$$$****+++$$$$$$$   $$$$$$$ooo;;;;;;;",
";;;;;;;   $$$****$$$$$$$***ooo****ooo;;;;;;;;;;",
";;;;;;;   $$$****$$$$$$$***ooo****ooo;;;;;;;;;;",
";;;;;;;   $$$****$$$$$$$***ooo****ooo;;;;;;;;;;",
";;;    ###ooooooo$$$$$$$$$$$$$oooo;;;;;;;;;;;;;",
";;;    ###ooooooo$$$$$$$$$$$$$oooo;;;;;;;;;;;;;",
";;;    ###ooooooo$$$$$$$$$$$$$oooo;;;;;;;;;;;;;",
"   %%%%%%%###....       oooooo....;;;;;;;;;;;;;",
"   %%%%%%%###....       oooooo....;;;;;;;;;;;;;",
"   %%%%%%%###....       oooooo....;;;;;;;;;;;;;",
"   %%%%%%%###....       oooooo....;;;;;;;;;;;;;",
"   oooo%%%###    XXXXXXX   OOO....;;;;;;;;;;;;;",
"   oooo%%%###    XXXXXXX   OOO....;;;;;;;;;;;;;",
"   oooo%%%###    XXXXXXX   OOO....;;;;;;;;;;;;;",
"   ####ooo...    XXXXXXX...OOO    ;;;;;;;;;;;;;",
"   ####ooo...    XXXXXXX...OOO    ;;;;;;;;;;;;;",
"   ####ooo...    XXXXXXX...OOO    ;;;;;;;;;;;;;",
"   ####ooo...    XXXXXXX...OOO    ;;;;;;;;;;;;;",
";;;    ###       $$$$$$$      ;;;;;;;;;;;;;;;;;",
";;;    ###       $$$$$$$      ;;;;;;;;;;;;;;;;;",
";;;    ###       $$$$$$$      ;;;;;;;;;;;;;;;;;",
";;;;;;;      &&&&ooooooo&&&   ;;;;;;;;;;;;;;;;;",
";;;;;;;      &&&&ooooooo&&&   ;;;;;;;;;;;;;;;;;",
";;;;;;;      &&&&ooooooo&&&   ;;;;;;;;;;;;;;;;;",
";;;;;;;;;;;;;    XXXOOOOXXX   ;;;;;;;;;;;;;;;;;",
";;;;;;;;;;;;;    XXXOOOOXXX   ;;;;;;;;;;;;;;;;;",
";;;;;;;;;;;;;    XXXOOOOXXX   ;;;;;;;;;;;;;;;;;",
";;;;;;;;;;;;;    XXXOOOOXXX   ;;;;;;;;;;;;;;;;;",
";;;;;;;;;;;;;;;;;          ;;;;;;;;;;;;;;;;;;;;",
";;;;;;;;;;;;;;;;;          ;;;;;;;;;;;;;;;;;;;;",
";;;;;;;;;;;;;;;;;          ;;;;;;;;;;;;;;;;;;;;"
};
