/* XPM */
static char *result[] = {
/* columns rows colors chars-per-pixel */
"50 64 14 1 ",
"  c black",
". c #682323",
"X c #793E3E",
"o c #353579",
"O c #C13535",
"+ c #F86846",
"@ c #B99935",
"# c #D99170",
"$ c #F8D957",
"% c #70A1C1",
"& c #F8C191",
"* c #B1B1D1",
"= c #E9E9F8",
"- c None",
/* pixels */
"-------.............................--------------",
"-------.............................--------------",
"-------.............................--------------",
"-------.............................--------------",
"----...OOOO+++++++++++++++++++++OOOO...-----------",
"----...OOOO+++++++++++++++++++++OOOO...-----------",
"----...OOOO+++++++++++++++++++++OOOO...-----------",
"----...+++++++++++++++++++++++++++++OOO....-------",
"----...+++++++++++++++++++++++++++++OOO....-------",
"----...+++++++++++++++++++++++++++++OOO....-------",
"----...+++++++++++++++++++++++++++++OOO....-------",
"....OOO+++++++++++++++++++++++++++++===.......----",
"....OOO+++++++++++++++++++++++++++++===.......----",
"....OOO+++++++++++++++++++++++++++++===.......----",
"....OOOOOOO+++++++++++++++++++++OOOO===....===    ",
"....OOOOOOO+++++++++++++++++++++OOOO===....===    ",
"....OOOOOOO+++++++++++++++++++++OOOO===....===    ",
"....OOOOOOO+++++++++++++++++++++OOOO===....===    ",
"....OOOOOOOOOOOOOOOOOOOOOOOOOOOOOOOO***OOOO===    ",
"....OOOOOOOOOOOOOOOOOOOOOOOOOOOOOOOO***OOOO===    ",
"....OOOOOOOOOOOOOOOOOOOOOOOOOOOOOOOO***OOOO===    ",
"    ...OOOOOOOOOOOOOOOOOOOOOOOOOOOOOOOO****===    ",
"    ...OOOOOOOOOOOOOOOOOOOOOOOOOOOOOOOO****===    ",
"    ...OOOOOOOOOOOOOOOOOOOOOOOOOOOOOOOO****===    ",
"    ...OOOOOOOOOOOOOOOOOOOOOOOOOOOOOOOO****===    ",
"    XXX.......OOOOOOOOOOOOOOOOOO***********   ----",
"    XXX.......OOOOOOOOOOOOOOOOOO***********   ----",
"    XXX.......OOOOOOOOOOOOOOOOOO***********   ----",
"    XXXXXXXXXX......................oooXXXX-------",
"    XXXXXXXXXX......................oooXXXX-------",
"    XXXXXXXXXX......................oooXXXX-------",
"    XXXXXXXXXX......................oooXXXX-------",
"----   XXXX###&&&&XXX########   #######XXXX-------",
"----   XXXX###&&&&XXX########   #######XXXX-------",
"----   XXXX###&&&&XXX########   #######XXXX-------",
"----   XXXX###&&&&XXX########   #######XXXX-------",
"-------    ###&&&&#######&&&&XXX&&&&XXX-----------",
"-------    ###&&&&#######&&&&XXX&&&&XXX-----------",
"-------    ###&&&&#######&&&&XXX&&&&XXX-----------",
"----   @@@@XXXXXXX##############XXXX--------------",
"----   @@@@XXXXXXX##############XXXX--------------",
"----   @@@@XXXXXXX##############XXXX--------------",
"----   @@@@XXXXXXX##############XXXX--------------",
"    $$$$$$$@@@XXXX...ooooXXXXXXX    --------------",
"    $$$$$$$@@@XXXX...ooooXXXXXXX    --------------",
"    $$$$$$$@@@XXXX...ooooXXXXXXX    --------------",
"    XXX$$$$@@@OOOOooooooooooo&&&&&&&   -----------",
"    XXX$$$$@@@OOOOooooooooooo&&&&&&&   -----------",
"    XXX$$$$@@@OOOOooooooooooo&&&&&&&   -----------",
"    XXX$$$$@@@OOOOooooooooooo&&&&&&&   -----------",
"    @@@XXXX...OOOO   oooooooo#######   -----------",
"    @@@XXXX...OOOO   oooooooo#######   -----------",
"    @@@XXXX...OOOO   oooooooo#######   -----------",
"----   @@@@ooo%%%%%%%        XXX    --------------",
"----   @@@@ooo%%%%%%%        XXX    --------------",
"----   @@@@ooo%%%%%%%        XXX    --------------",
"----   @@@@ooo%%%%%%%        XXX    --------------",
"----   ooooooooooo              ------------------",
"----   ooooooooooo              ------------------",
"----   ooooooooooo              ------------------",
"-------           --------------------------------",
"-------           --------------------------------",
"-------           --------------------------------",
"-------           --------------------------------"
};
