/* XPM */
static char *result[] = {
/* columns rows colors chars-per-pixel */
"47 64 15 1 ",
"  c black",
". c #682828",
"X c #383878",
"o c #784040",
"O c #C03838",
"+ c #A87840",
"@ c #F86848",
"# c #B89838",
"$ c #D89070",
"% c #F8D858",
"& c #70A0C0",
"* c #F8C090",
"= c #B0B0D0",
"- c #E8E8F8",
"; c None",
/* pixels */
";;;;;;;;;;;;;...........................;;;;;;;",
";;;;;;;;;;;;;...........................;;;;;;;",
";;;;;;;;;;;;;...........................;;;;;;;",
";;;;;;;;;;...OOOO@@@@@@@@@@@@@@@@@@@@OOO....;;;",
";;;;;;;;;;...OOOO@@@@@@@@@@@@@@@@@@@@OOO....;;;",
";;;;;;;;;;...OOOO@@@@@@@@@@@@@@@@@@@@OOO....;;;",
";;;;;;;;;;...OOOO@@@@@@@@@@@@@@@@@@@@OOO....;;;",
";;;;;;;...OOO@@@@@@@@@@@@@@@@@@@@@@@@@@@....;;;",
";;;;;;;...OOO@@@@@@@@@@@@@@@@@@@@@@@@@@@....;;;",
";;;;;;;...OOO@@@@@@@@@@@@@@@@@@@@@@@@@@@....;;;",
";;;.......---@@@@@@@@@@@@@@@@@@@@@@@@@@@OOOO...",
";;;.......---@@@@@@@@@@@@@@@@@@@@@@@@@@@OOOO...",
";;;.......---@@@@@@@@@@@@@@@@@@@@@@@@@@@OOOO...",
"   ----...---OOOO@@@@@@@@@@@@@@@@@@@@OOOOOOO...",
"   ----...---OOOO@@@@@@@@@@@@@@@@@@@@OOOOOOO...",
"   ----...---OOOO@@@@@@@@@@@@@@@@@@@@OOOOOOO...",
"   ----...---OOOO@@@@@@@@@@@@@@@@@@@@OOOOOOO...",
"   ----OOO===OOOOOOOOOOOOOOOOOOOOOOOOOOOOOOO...",
"   ----OOO===OOOOOOOOOOOOOOOOOOOOOOOOOOOOOOO...",
"   ----OOO===OOOOOOOOOOOOOOOOOOOOOOOOOOOOOOO...",
"   ----===OOOOOOOOOOOOOOOOOOOOOOOOOOOOOO....   ",
"   ----===OOOOOOOOOOOOOOOOOOOOOOOOOOOOOO....   ",
"   ----===OOOOOOOOOOOOOOOOOOOOOOOOOOOOOO....   ",
"   ----===OOOOOOOOOOOOOOOOOOOOOOOOOOOOOO....   ",
";;;    ==========OOOOOOOOOOOOOOOOO......oooo   ",
";;;    ==========OOOOOOOOOOOOOOOOO......oooo   ",
";;;    ==========OOOOOOOOOOOOOOOOO......oooo   ",
";;;;;;;oooXXX.....................oooooooooo   ",
";;;;;;;oooXXX.....................oooooooooo   ",
";;;;;;;oooXXX.....................oooooooooo   ",
";;;;;;;ooo$$$$$$$   $$$$$$$+++****$$$ooo    ;;;",
";;;;;;;ooo$$$$$$$   $$$$$$$+++****$$$ooo    ;;;",
";;;;;;;ooo$$$$$$$   $$$$$$$+++****$$$ooo    ;;;",
";;;;;;;ooo$$$$$$$   $$$$$$$+++****$$$ooo    ;;;",
";;;;;;;;;;ooo****ooo***$$$$$$$****$$$   ;;;;;;;",
";;;;;;;;;;ooo****ooo***$$$$$$$****$$$   ;;;;;;;",
";;;;;;;;;;ooo****ooo***$$$$$$$****$$$   ;;;;;;;",
";;;;;;;;;;;;;oooo$$$$$$$$$$$$$ooooooo###    ;;;",
";;;;;;;;;;;;;oooo$$$$$$$$$$$$$ooooooo###    ;;;",
";;;;;;;;;;;;;oooo$$$$$$$$$$$$$ooooooo###    ;;;",
";;;;;;;;;;;;;....oooooo       ....###%%%%%%%   ",
";;;;;;;;;;;;;....oooooo       ....###%%%%%%%   ",
";;;;;;;;;;;;;....oooooo       ....###%%%%%%%   ",
";;;;;;;;;;;;;....oooooo       ....###%%%%%%%   ",
";;;;;;;;;;;;;....OOO   XXXXXXX    ###%%%oooo   ",
";;;;;;;;;;;;;....OOO   XXXXXXX    ###%%%oooo   ",
";;;;;;;;;;;;;....OOO   XXXXXXX    ###%%%oooo   ",
";;;;;;;;;;;;;    OOO...XXXXXXX    ...ooo####   ",
";;;;;;;;;;;;;    OOO...XXXXXXX    ...ooo####   ",
";;;;;;;;;;;;;    OOO...XXXXXXX    ...ooo####   ",
";;;;;;;;;;;;;    OOO...XXXXXXX    ...ooo####   ",
";;;;;;;;;;;;;;;;;      $$$$$$$       ###    ;;;",
";;;;;;;;;;;;;;;;;      $$$$$$$       ###    ;;;",
";;;;;;;;;;;;;;;;;      $$$$$$$       ###    ;;;",
";;;;;;;;;;;;;;;;;   &&&ooooooo&&&&      ;;;;;;;",
";;;;;;;;;;;;;;;;;   &&&ooooooo&&&&      ;;;;;;;",
";;;;;;;;;;;;;;;;;   &&&ooooooo&&&&      ;;;;;;;",
";;;;;;;;;;;;;;;;;   XXXOOOOXXX    ;;;;;;;;;;;;;",
";;;;;;;;;;;;;;;;;   XXXOOOOXXX    ;;;;;;;;;;;;;",
";;;;;;;;;;;;;;;;;   XXXOOOOXXX    ;;;;;;;;;;;;;",
";;;;;;;;;;;;;;;;;   XXXOOOOXXX    ;;;;;;;;;;;;;",
";;;;;;;;;;;;;;;;;;;;          ;;;;;;;;;;;;;;;;;",
";;;;;;;;;;;;;;;;;;;;          ;;;;;;;;;;;;;;;;;",
";;;;;;;;;;;;;;;;;;;;          ;;;;;;;;;;;;;;;;;"
};
