/* XPM */
static char *result[] = {
/* columns rows colors chars-per-pixel */
"50 64 14 1 ",
"  c black",
". c #682323",
"X c #793E3E",
"o c #353579",
"O c #C13535",
"+ c #F86846",
"@ c #B99935",
"# c #D99170",
"$ c #F8D957",
"% c #70A1C1",
"& c #F8C191",
"* c #B1B1D1",
"= c #E9E9F8",
"- c None",
/* pixels */
"--------------.............................-------",
"--------------.............................-------",
"--------------.............................-------",
"--------------.............................-------",
"-----------...OOOO+++++++++++++++++++++OOOO...----",
"-----------...OOOO+++++++++++++++++++++OOOO...----",
"-----------...OOOO+++++++++++++++++++++OOOO...----",
"-------....OOO+++++++++++++++++++++++++++++...----",
"-------....OOO+++++++++++++++++++++++++++++...----",
"-------....OOO+++++++++++++++++++++++++++++...----",
"-------....OOO+++++++++++++++++++++++++++++...----",
"----.......===+++++++++++++++++++++++++++++OOO....",
"----.......===+++++++++++++++++++++++++++++OOO....",
"----.......===+++++++++++++++++++++++++++++OOO....",
"    ===....===OOOO+++++++++++++++++++++OOOOOOO....",
"    ===....===OOOO+++++++++++++++++++++OOOOOOO....",
"    ===....===OOOO+++++++++++++++++++++OOOOOOO....",
"    ===....===OOOO+++++++++++++++++++++OOOOOOO....",
"    ===OOOO***OOOOOOOOOOOOOOOOOOOOOOOOOOOOOOOO....",
"    ===OOOO***OOOOOOOOOOOOOOOOOOOOOOOOOOOOOOOO....",
"    ===OOOO***OOOOOOOOOOOOOOOOOOOOOOOOOOOOOOOO....",
"    ===****OOOOOOOOOOOOOOOOOOOOOOOOOOOOOOOO...    ",
"    ===****OOOOOOOOOOOOOOOOOOOOOOOOOOOOOOOO...    ",
"    ===****OOOOOOOOOOOOOOOOOOOOOOOOOOOOOOOO...    ",
"    ===****OOOOOOOOOOOOOOOOOOOOOOOOOOOOOOOO...    ",
"----   ***********OOOOOOOOOOOOOOOOOO.......XXX    ",
"----   ***********OOOOOOOOOOOOOOOOOO.......XXX    ",
"----   ***********OOOOOOOOOOOOOOOOOO.......XXX    ",
"-------XXXXooo......................XXXXXXXXXX    ",
"-------XXXXooo......................XXXXXXXXXX    ",
"-------XXXXooo......................XXXXXXXXXX    ",
"-------XXXXooo......................XXXXXXXXXX    ",
"-------XXXX#######   ########XXX&&&&###XXXX   ----",
"-------XXXX#######   ########XXX&&&&###XXXX   ----",
"-------XXXX#######   ########XXX&&&&###XXXX   ----",
"-------XXXX#######   ########XXX&&&&###XXXX   ----",
"-----------XXX&&&&XXX&&&&#######&&&&###    -------",
"-----------XXX&&&&XXX&&&&#######&&&&###    -------",
"-----------XXX&&&&XXX&&&&#######&&&&###    -------",
"--------------XXXX##############XXXXXXX@@@@   ----",
"--------------XXXX##############XXXXXXX@@@@   ----",
"--------------XXXX##############XXXXXXX@@@@   ----",
"--------------XXXX##############XXXXXXX@@@@   ----",
"--------------    XXXXXXXoooo...XXXX@@@$$$$$$$    ",
"--------------    XXXXXXXoooo...XXXX@@@$$$$$$$    ",
"--------------    XXXXXXXoooo...XXXX@@@$$$$$$$    ",
"-----------   &&&&&&&oooooooooooOOOO@@@$$$$XXX    ",
"-----------   &&&&&&&oooooooooooOOOO@@@$$$$XXX    ",
"-----------   &&&&&&&oooooooooooOOOO@@@$$$$XXX    ",
"-----------   &&&&&&&oooooooooooOOOO@@@$$$$XXX    ",
"-----------   #######oooooooo   OOOO...XXXX@@@    ",
"-----------   #######oooooooo   OOOO...XXXX@@@    ",
"-----------   #######oooooooo   OOOO...XXXX@@@    ",
"--------------    XXX        %%%%%%%ooo@@@@   ----",
"--------------    XXX        %%%%%%%ooo@@@@   ----",
"--------------    XXX        %%%%%%%ooo@@@@   ----",
"--------------    XXX        %%%%%%%ooo@@@@   ----",
"------------------              ooooooooooo   ----",
"------------------              ooooooooooo   ----",
"------------------              ooooooooooo   ----",
"--------------------------------           -------",
"--------------------------------           -------",
"--------------------------------           -------",
"--------------------------------           -------"
};
