/* XPM */
static char *result[] = {
/* columns rows colors chars-per-pixel */
"47 64 13 1 ",
"  c black",
". c #682828",
"X c #383878",
"o c #784040",
"O c #C03838",
"+ c #A87840",
"@ c #F86848",
"# c #D89070",
"$ c #70A0C0",
"% c #F8C090",
"& c #B0B0D0",
"* c #E8E8F8",
"= c None",
/* pixels */
"===============================================",
"===============================================",
"===============================================",
"==========...........................==========",
"==========...........................==========",
"==========...........................==========",
"=======...OOO@@@@@@@@@@@@@@@@@@@@@OOO...=======",
"=======...OOO@@@@@@@@@@@@@@@@@@@@@OOO...=======",
"=======...OOO@@@@@@@@@@@@@@@@@@@@@OOO...=======",
"=======...OOO@@@@@@@@@@@@@@@@@@@@@OOO...=======",
"=======...@@@@@@@@@@@@@@@@@@@@@@@@@@@...=======",
"=======...@@@@@@@@@@@@@@@@@@@@@@@@@@@...=======",
"=======...@@@@@@@@@@@@@@@@@@@@@@@@@@@...=======",
"===....OOO@@@@@@@@@@@@@@@@@@@@@@@@@@@OOO....===",
"===....OOO@@@@@@@@@@@@@@@@@@@@@@@@@@@OOO....===",
"===....OOO@@@@@@@@@@@@@@@@@@@@@@@@@@@OOO....===",
"===    OOOOOO@@@@@@@@@@@@@@@@@@@@@OOOOOO    ===",
"===    OOOOOO@@@@@@@@@@@@@@@@@@@@@OOOOOO    ===",
"===    OOOOOO@@@@@@@@@@@@@@@@@@@@@OOOOOO    ===",
"===    OOOOOO@@@@@@@@@@@@@@@@@@@@@OOOOOO    ===",
"===    OOOOOOOOOOOOO*******OOOOOOOOOOOOO    ===",
"===    OOOOOOOOOOOOO*******OOOOOOOOOOOOO    ===",
"===    OOOOOOOOOOOOO*******OOOOOOOOOOOOO    ===",
"   ++++...&&&OOOO&&&OOOOOOO&&&OOOO&&&...++++   ",
"   ++++...&&&OOOO&&&OOOOOOO&&&OOOO&&&...++++   ",
"   ++++...&&&OOOO&&&OOOOOOO&&&OOOO&&&...++++   ",
"   ++++...&&&OOOO&&&OOOOOOO&&&OOOO&&&...++++   ",
"   ####   XXX*********************XXX   ####   ",
"   ####   XXX*********************XXX   ####   ",
"   ####   XXX*********************XXX   ####   ",
"===    ooo###XXXXXXXXXXXXXXXXXXXXX###ooo    ===",
"===    ooo###XXXXXXXXXXXXXXXXXXXXX###ooo    ===",
"===    ooo###XXXXXXXXXXXXXXXXXXXXX###ooo    ===",
"===    ######%%%%   %%%%%%%   %%%%######    ===",
"===    ######%%%%   %%%%%%%   %%%%######    ===",
"===    ######%%%%   %%%%%%%   %%%%######    ===",
"===    ######%%%%   %%%%%%%   %%%%######    ===",
"=======ooo#######ooo%%%%%%%ooo#######ooo=======",
"=======ooo#######ooo%%%%%%%ooo#######ooo=======",
"=======ooo#######ooo%%%%%%%ooo#######ooo=======",
"===    XXX   oooo#############oooo   XXX    ===",
"===    XXX   oooo#############oooo   XXX    ===",
"===    XXX   oooo#############oooo   XXX    ===",
"ooo%%%%XXXXXXOOOO             OOOOXXXXXX%%%%ooo",
"ooo%%%%XXXXXXOOOO             OOOOXXXXXX%%%%ooo",
"ooo%%%%XXXXXXOOOO             OOOOXXXXXX%%%%ooo",
"ooo%%%%XXXXXXOOOO             OOOOXXXXXX%%%%ooo",
"ooo#######XXXOOOOOOO&&&&&&&OOOOOOOXXX#######ooo",
"ooo#######XXXOOOOOOO&&&&&&&OOOOOOOXXX#######ooo",
"ooo#######XXXOOOOOOO&&&&&&&OOOOOOOXXX#######ooo",
"===oooo      OOOO@@@*******@@@OOOO      oooo===",
"===oooo      OOOO@@@*******@@@OOOO      oooo===",
"===oooo      OOOO@@@*******@@@OOOO      oooo===",
"===oooo      OOOO@@@*******@@@OOOO      oooo===",
"=======XXX$$$XXXX             XXXX$$$XXX=======",
"=======XXX$$$XXXX             XXXX$$$XXX=======",
"=======XXX$$$XXXX             XXXX$$$XXX=======",
"=======      $$$$$$$       $$$$$$$      =======",
"=======      $$$$$$$       $$$$$$$      =======",
"=======      $$$$$$$       $$$$$$$      =======",
"=======   XXXXXXX   =======   XXXXXXX   =======",
"==========       =============       ==========",
"==========       =============       ==========",
"==========       =============       =========="
};
