/* XPM */
static char *result[] = {
/* columns rows colors chars-per-pixel */
"47 64 13 1 ",
"  c black",
". c #682828",
"X c #383878",
"o c #784040",
"O c #C03838",
"+ c #A87840",
"@ c #F86848",
"# c #D89070",
"$ c #70A0C0",
"% c #F8C090",
"& c #B0B0D0",
"* c #E8E8F8",
"= c None",
/* pixels */
"=============.....................=============",
"=============.....................=============",
"=============.....................=============",
"=======......OOOO@@@@@@@@@@@@@@@@@......=======",
"=======......OOOO@@@@@@@@@@@@@@@@@......=======",
"=======......OOOO@@@@@@@@@@@@@@@@@......=======",
"=======......OOOO@@@@@@@@@@@@@@@@@......=======",
"===....OOO@@@@@@@@@@@@@@@@@@@@@@@@@@@OOO=======",
"===....OOO@@@@@@@@@@@@@@@@@@@@@@@@@@@OOO=======",
"===....OOO@@@@@@@@@@@@@@@@@@@@@@@@@@@OOO=======",
"===....OOO@@@@@@@@@@@@@@@@@@@@@@@@@@@OOO....===",
"===....OOO@@@@@@@@@@@@@@@@@@@@@@@@@@@OOO....===",
"===....OOO@@@@@@@@@@@@@@@@@@@@@@@@@@@OOO....===",
"===XXXXOOOOOO@@@@@@@@@@@@@@@@@OOOOOOOOOO....===",
"===XXXXOOOOOO@@@@@@@@@@@@@@@@@OOOOOOOOOO....===",
"===XXXXOOOOOO@@@@@@@@@@@@@@@@@OOOOOOOOOO....===",
"===XXXXOOOOOO@@@@@@@@@@@@@@@@@OOOOOOOOOO....===",
"XXX****OOOOOO****&&&OOOOOOOOOOOOOOOOOOOO....===",
"XXX****OOOOOO****&&&OOOOOOOOOOOOOOOOOOOO....===",
"XXX****OOOOOO****&&&OOOOOOOOOOOOOOOOOOOO....===",
"XXX&&&&***&&&OOOOOOO&&&OOOOOOOOOOOOOO...    ===",
"XXX&&&&***&&&OOOOOOO&&&OOOOOOOOOOOOOO...    ===",
"XXX&&&&***&&&OOOOOOO&&&OOOOOOOOOOOOOO...    ===",
"XXX&&&&***&&&OOOOOOO&&&OOOOOOOOOOOOOO...    ===",
"===XXXX&&&&&&**************&&&OOOOooo   ++++ooo",
"===XXXX&&&&&&**************&&&OOOOooo   ++++ooo",
"===XXXX&&&&&&**************&&&OOOOooo   ++++ooo",
"=======XXXXXXXXXXXXXXXXXXXXXXXoooo###ooo####ooo",
"=======XXXXXXXXXXXXXXXXXXXXXXXoooo###ooo####ooo",
"=======XXXXXXXXXXXXXXXXXXXXXXXoooo###ooo####ooo",
"=======######    %%%%%%    %%%%%%%######oooo===",
"=======######    %%%%%%    %%%%%%%######oooo===",
"=======######    %%%%%%    %%%%%%%######oooo===",
"=======######    %%%%%%    %%%%%%%######oooo===",
"===    ooo#######%%%%%%oooo%%%#######ooo=======",
"===    ooo#######%%%%%%oooo%%%#######ooo=======",
"===    ooo#######%%%%%%oooo%%%#######ooo=======",
"ooo####XXX   oooo#############oooo      =======",
"ooo####XXX   oooo#############oooo      =======",
"ooo####XXX   oooo#############oooo      =======",
"ooo####XXXOOOOOOO          XXXXXXXOOO   =======",
"ooo####XXXOOOOOOO          XXXXXXXOOO   =======",
"ooo####XXXOOOOOOO          XXXXXXXOOO   =======",
"ooo####XXXOOOOOOO          XXXXXXXOOO   =======",
"===oooooooooo%%%%ooo%%%####oooXXXXXXX   =======",
"===oooooooooo%%%%ooo%%%####oooXXXXXXX   =======",
"===oooooooooo%%%%ooo%%%####oooXXXXXXX   =======",
"=======   ooo####ooo#######oooXXXX      =======",
"=======   ooo####ooo#######oooXXXX      =======",
"=======   ooo####ooo#######oooXXXX      =======",
"=======   ooo####ooo#######oooXXXX      =======",
"=======XXX$$$oooooooooo       XXXX$$$XXX=======",
"=======XXX$$$oooooooooo       XXXX$$$XXX=======",
"=======XXX$$$oooooooooo       XXXX$$$XXX=======",
"=======      $$$$$$$       $$$$$$$      =======",
"=======      $$$$$$$       $$$$$$$      =======",
"=======      $$$$$$$       $$$$$$$      =======",
"=======   XXXXXXX   =======   XXXXXXX   =======",
"=======   XXXXXXX   =======   XXXXXXX   =======",
"=======   XXXXXXX   =======   XXXXXXX   =======",
"=======   XXXXXXX   =======   XXXXXXX   =======",
"==========       =============       ==========",
"==========       =============       ==========",
"==========       =============       =========="
};
