/* XPM */
static char *result[] = {
/* columns rows colors chars-per-pixel */
"50 64 13 1 ",
"  c black",
". c #682323",
"X c #793E3E",
"o c #353579",
"O c #C13535",
"+ c #A9793E",
"@ c #F86846",
"# c #D99170",
"$ c #70A1C1",
"% c #F8C191",
"& c #B1B1D1",
"* c #E9E9F8",
"= c None",
/* pixels */
"==============......................==============",
"==============......................==============",
"==============......................==============",
"==============......................==============",
"=======.......OOOO@@@@@@@@@@@@@@@@@@.......=======",
"=======.......OOOO@@@@@@@@@@@@@@@@@@.......=======",
"=======.......OOOO@@@@@@@@@@@@@@@@@@.......=======",
"====...OOOO@@@@@@@@@@@@@@@@@@@@@@@@@@@@OOOO=======",
"====...OOOO@@@@@@@@@@@@@@@@@@@@@@@@@@@@OOOO=======",
"====...OOOO@@@@@@@@@@@@@@@@@@@@@@@@@@@@OOOO=======",
"====...OOOO@@@@@@@@@@@@@@@@@@@@@@@@@@@@OOOO=======",
"====...OOOO@@@@@@@@@@@@@@@@@@@@@@@@@@@@OOOO...====",
"====...OOOO@@@@@@@@@@@@@@@@@@@@@@@@@@@@OOOO...====",
"====...OOOO@@@@@@@@@@@@@@@@@@@@@@@@@@@@OOOO...====",
"====oooOOOOOOO@@@@@@@@@@@@@@@@@@OOOOOOOOOOO...====",
"====oooOOOOOOO@@@@@@@@@@@@@@@@@@OOOOOOOOOOO...====",
"====oooOOOOOOO@@@@@@@@@@@@@@@@@@OOOOOOOOOOO...====",
"====oooOOOOOOO@@@@@@@@@@@@@@@@@@OOOOOOOOOOO...====",
"oooo***OOOOOOO****&&&OOOOOOOOOOOOOOOOOOOOOO...====",
"oooo***OOOOOOO****&&&OOOOOOOOOOOOOOOOOOOOOO...====",
"oooo***OOOOOOO****&&&OOOOOOOOOOOOOOOOOOOOOO...====",
"oooo&&&****&&&OOOOOOO&&&&OOOOOOOOOOOOOO....   ====",
"oooo&&&****&&&OOOOOOO&&&&OOOOOOOOOOOOOO....   ====",
"oooo&&&****&&&OOOOOOO&&&&OOOOOOOOOOOOOO....   ====",
"oooo&&&****&&&OOOOOOO&&&&OOOOOOOOOOOOOO....   ====",
"====ooo&&&&&&&***************&&&OOOOXXX    +++XXXX",
"====ooo&&&&&&&***************&&&OOOOXXX    +++XXXX",
"====ooo&&&&&&&***************&&&OOOOXXX    +++XXXX",
"=======oooooooooooooooooooooooooXXXX###XXXX###XXXX",
"=======oooooooooooooooooooooooooXXXX###XXXX###XXXX",
"=======oooooooooooooooooooooooooXXXX###XXXX###XXXX",
"=======oooooooooooooooooooooooooXXXX###XXXX###XXXX",
"=======#######    %%%%%%%    %%%%%%%#######XXX====",
"=======#######    %%%%%%%    %%%%%%%#######XXX====",
"=======#######    %%%%%%%    %%%%%%%#######XXX====",
"=======#######    %%%%%%%    %%%%%%%#######XXX====",
"====XXXXXXX#######%%%%%%%XXXX%%%#######XXXX=======",
"====XXXXXXX#######%%%%%%%XXXX%%%#######XXXX=======",
"====XXXXXXX#######%%%%%%%XXXX%%%#######XXXX=======",
"====XXX####   XXXX##############XXXX       =======",
"====XXX####   XXXX##############XXXX       =======",
"====XXX####   XXXX##############XXXX       =======",
"====XXX####   XXXX##############XXXX       =======",
"=======XXXXXXXooooOOO           ooooOOOOOOO   ====",
"=======XXXXXXXooooOOO           ooooOOOOOOO   ====",
"=======XXXXXXXooooOOO           ooooOOOOOOO   ====",
"===========XXX%%%%XXX%%%%%%%%XXXXXXXoooOOOO   ====",
"===========XXX%%%%XXX%%%%%%%%XXXXXXXoooOOOO   ====",
"===========XXX%%%%XXX%%%%%%%%XXXXXXXoooOOOO   ====",
"===========XXX%%%%XXX%%%%%%%%XXXXXXXoooOOOO   ====",
"===========   ####XXX########XXXooooooo       ====",
"===========   ####XXX########XXXooooooo       ====",
"===========   ####XXX########XXXooooooo       ====",
"===========ooo    $$$XXXXXXXX          $$$$ooo====",
"===========ooo    $$$XXXXXXXX          $$$$ooo====",
"===========ooo    $$$XXXXXXXX          $$$$ooo====",
"===========ooo    $$$XXXXXXXX          $$$$ooo====",
"===========   ooooooo               ooooooo   ====",
"===========   ooooooo               ooooooo   ====",
"===========   ooooooo               ooooooo   ====",
"==============       ===============       =======",
"==============       ===============       =======",
"==============       ===============       =======",
"==============       ===============       ======="
};
