/* XPM */
static char *result[] = {
/* columns rows colors chars-per-pixel */
"47 64 15 1 ",
"  c black",
". c #682323",
"X c #793E3E",
"o c #353579",
"O c #C13535",
"+ c #A9793E",
"@ c #F86846",
"# c #D99170",
"$ c #CA23CC",
"% c #EB20EE",
"& c #70A1C1",
"* c #F8C191",
"= c #B1B1D1",
"- c #E9E9F8",
"; c None",
/* pixels */
";;;;;;;;;;...........................;;;;;;;;;;",
";;;;;;;;;;...........................;;;;;;;;;;",
";;;;;;;;;;...........................;;;;;;;;;;",
";;;;;;;......OOOO@@@@@@@@@@@@@@@@@......;;;;;;;",
";;;;;;;......OOOO@@@@@@@@@@@@@@@@@......;;;;;;;",
";;;;;;;......OOOO@@@@@@@@@@@@@@@@@......;;;;;;;",
";;;;;;;......OOOO@@@@@@@@@@@@@@@@@......;;;;;;;",
";;;....OOO@@@@@@@@@@@@@@@@@@@@@@@@@@@OOO;;;;;;;",
";;;....OOO@@@@@@@@@@@@@@@@@@@@@@@@@@@OOO;;;;;;;",
";;;....OOO@@@@@@@@@@@@@@@@@@@@@@@@@@@OOO;;;;;;;",
";;;....OOO@@@@@@@@@@@@@@@@@@@@@@@@@@@OOO....;;;",
";;;....OOO@@@@@@@@@@@@@@@@@@@@@@@@@@@OOO....;;;",
";;;....OOO@@@@@@@@@@@@@@@@@@@@@@@@@@@OOO....;;;",
";;;ooooOOOOOO@@@@@@@@@@@@@@@@@OOOOOOOOOO....;;;",
";;;ooooOOOOOO@@@@@@@@@@@@@@@@@OOOOOOOOOO....;;;",
";;;ooooOOOOOO@@@@@@@@@@@@@@@@@OOOOOOOOOO....;;;",
";;;ooooOOOOOO@@@@@@@@@@@@@@@@@OOOOOOOOOO....;;;",
"ooo----OOOOOO----===OOOOOOOOOOOOOOOOOOOO....;;;",
"ooo----OOOOOO----===OOOOOOOOOOOOOOOOOOOO....;;;",
"ooo----OOOOOO----===OOOOOOOOOOOOOOOOOOOO....;;;",
"ooo====---===OOOOOOO===OOOOOOOOOOOOOO...       ",
"ooo====---===OOOOOOO===OOOOOOOOOOOOOO...       ",
"ooo====---===OOOOOOO===OOOOOOOOOOOOOO...       ",
"ooo====---===OOOOOOO===OOOOOOOOOOOOOO...       ",
"   oooo======--------------===OOOOXXX   ++++XXX",
"   oooo======--------------===OOOOXXX   ++++XXX",
"   oooo======--------------===OOOOXXX   ++++XXX",
";;;    oooooooooooooooooooooooXXXX###XXX####XXX",
";;;    oooooooooooooooooooooooXXXX###XXX####XXX",
";;;    oooooooooooooooooooooooXXXX###XXX####XXX",
";;;    ###XXX       ***    *******######XXXX;;;",
";;;    ###XXX       ***    *******######XXXX;;;",
";;;    ###XXX       ***    *******######XXXX;;;",
";;;    ###XXX       ***    *******######XXXX;;;",
";;;    XXX%%%----%%%   XXXX***#######XXX;;;;;;;",
";;;    XXX%%%----%%%   XXXX***#######XXX;;;;;;;",
";;;    XXX%%%----%%%   XXXX***#######XXX;;;;;;;",
"XXX####   ooo$$$$$$$   #######XXXX          ;;;",
"XXX####   ooo$$$$$$$   #######XXXX          ;;;",
"XXX####   ooo$$$$$$$   #######XXXX          ;;;",
"XXX####   ---=======       oooooooOOO   ****XXX",
"XXX####   ---=======       oooooooOOO   ****XXX",
"XXX####   ---=======       oooooooOOO   ****XXX",
"XXX####   ---=======       oooooooOOO   ****XXX",
"XXXXXXXXXX          ***####XXXooooooo   ####XXX",
"XXXXXXXXXX          ***####XXXooooooo   ####XXX",
"XXXXXXXXXX          ***####XXXooooooo   ####XXX",
";;;XXXX   XXX####XXX#######XXXoooo      XXXX;;;",
";;;XXXX   XXX####XXX#######XXXoooo      XXXX;;;",
";;;XXXX   XXX####XXX#######XXXoooo      XXXX;;;",
";;;XXXX   XXX####XXX#######XXXoooo      XXXX;;;",
";;;;;;;ooo&&&XXXXXXXXXX       oooo&&&ooo;;;;;;;",
";;;;;;;ooo&&&XXXXXXXXXX       oooo&&&ooo;;;;;;;",
";;;;;;;ooo&&&XXXXXXXXXX       oooo&&&ooo;;;;;;;",
";;;;;;;      &&&&&&&       &&&&&&&      ;;;;;;;",
";;;;;;;      &&&&&&&       &&&&&&&      ;;;;;;;",
";;;;;;;      &&&&&&&       &&&&&&&      ;;;;;;;",
";;;;;;;   ooooooo   ;;;;;;;   ooooooo   ;;;;;;;",
";;;;;;;   ooooooo   ;;;;;;;   ooooooo   ;;;;;;;",
";;;;;;;   ooooooo   ;;;;;;;   ooooooo   ;;;;;;;",
";;;;;;;   ooooooo   ;;;;;;;   ooooooo   ;;;;;;;",
";;;;;;;;;;       ;;;;;;;;;;;;;       ;;;;;;;;;;",
";;;;;;;;;;       ;;;;;;;;;;;;;       ;;;;;;;;;;",
";;;;;;;;;;       ;;;;;;;;;;;;;       ;;;;;;;;;;"
};
