/* XPM */
static char *result[] = {
/* columns rows colors chars-per-pixel */
"47 64 15 1 ",
"  c black",
". c #682323",
"X c #793E3E",
"o c #353579",
"O c #C13535",
"+ c #A9793E",
"@ c #F86846",
"# c #D99170",
"$ c #CA23CC",
"% c #EB20EE",
"& c #70A1C1",
"* c #F8C191",
"= c #B1B1D1",
"- c #E9E9F8",
"; c None",
/* pixels */
";;;;;;;;;;...........................;;;;;;;;;;",
";;;;;;;;;;...........................;;;;;;;;;;",
";;;;;;;;;;...........................;;;;;;;;;;",
";;;;;;;...OOO@@@@@@@@@@@@@@@@@@@@@OOO...;;;;;;;",
";;;;;;;...OOO@@@@@@@@@@@@@@@@@@@@@OOO...;;;;;;;",
";;;;;;;...OOO@@@@@@@@@@@@@@@@@@@@@OOO...;;;;;;;",
";;;;;;;...OOO@@@@@@@@@@@@@@@@@@@@@OOO...;;;;;;;",
";;;;;;;...@@@@@@@@@@@@@@@@@@@@@@@@@@@...;;;;;;;",
";;;;;;;...@@@@@@@@@@@@@@@@@@@@@@@@@@@...;;;;;;;",
";;;;;;;...@@@@@@@@@@@@@@@@@@@@@@@@@@@...;;;;;;;",
";;;....OOO@@@@@@@@@@@@@@@@@@@@@@@@@@@OOO....;;;",
";;;....OOO@@@@@@@@@@@@@@@@@@@@@@@@@@@OOO....;;;",
";;;....OOO@@@@@@@@@@@@@@@@@@@@@@@@@@@OOO....;;;",
";;;    OOOOOO@@@@@@@@@@@@@@@@@@@@@OOOOOO    ;;;",
";;;    OOOOOO@@@@@@@@@@@@@@@@@@@@@OOOOOO    ;;;",
";;;    OOOOOO@@@@@@@@@@@@@@@@@@@@@OOOOOO    ;;;",
";;;    OOOOOO@@@@@@@@@@@@@@@@@@@@@OOOOOO    ;;;",
";;;    OOOOOOOOOOOOO-------OOOOOOOOOOOOO    ;;;",
";;;    OOOOOOOOOOOOO-------OOOOOOOOOOOOO    ;;;",
";;;    OOOOOOOOOOOOO-------OOOOOOOOOOOOO    ;;;",
"   ++++...===OOOO===OOOOOOO===OOOO===...++++   ",
"   ++++...===OOOO===OOOOOOO===OOOO===...++++   ",
"   ++++...===OOOO===OOOOOOO===OOOO===...++++   ",
"   ++++...===OOOO===OOOOOOO===OOOO===...++++   ",
"   ####   ooo---------------------ooo   ####   ",
"   ####   ooo---------------------ooo   ####   ",
"   ####   ooo---------------------ooo   ####   ",
";;;    XXX###ooooooooooooooooooooo          ;;;",
";;;    XXX###ooooooooooooooooooooo          ;;;",
";;;    XXX###ooooooooooooooooooooo          ;;;",
";;;    ######****   *******   ####%%%---%%%%   ",
";;;    ######****   *******   ####%%%---%%%%   ",
";;;    ######****   *******   ####%%%---%%%%   ",
";;;    ######****   *******   ####%%%---%%%%   ",
"XXX####XXX#######XXX*******XXX####ooo%%%$$$$   ",
"XXX####XXX#######XXX*******XXX####ooo%%%$$$$   ",
"XXX####XXX#######XXX*******XXX####ooo%%%$$$$   ",
"XXX####      XXXX#############    ---=======   ",
"XXX####      XXXX#############    ---=======   ",
"XXX####      XXXX#############    ---=======   ",
";;;    oooooo....             oooo          ;;;",
";;;    oooooo....             oooo          ;;;",
";;;    oooooo....             oooo          ;;;",
";;;    oooooo....             oooo          ;;;",
";;;;;;;   ...@@@@======OOOOOOOXXXX******XXXX;;;",
";;;;;;;   ...@@@@======OOOOOOOXXXX******XXXX;;;",
";;;;;;;   ...@@@@======OOOOOOOXXXX******XXXX;;;",
";;;;;;;      OOOO------@@@@OOOXXXX######XXXX;;;",
";;;;;;;      OOOO------@@@@OOOXXXX######XXXX;;;",
";;;;;;;      OOOO------@@@@OOOXXXX######XXXX;;;",
";;;;;;;      OOOO------@@@@OOOXXXX######XXXX;;;",
";;;;;;;ooo&&&oooo             ooooXXXXXX;;;;;;;",
";;;;;;;ooo&&&oooo             ooooXXXXXX;;;;;;;",
";;;;;;;ooo&&&oooo             ooooXXXXXX;;;;;;;",
";;;;;;;      &&&&&&&       &&&&&&&      ;;;;;;;",
";;;;;;;      &&&&&&&       &&&&&&&      ;;;;;;;",
";;;;;;;      &&&&&&&       &&&&&&&      ;;;;;;;",
";;;;;;;   ooooooo   ;;;;;;;   ooooooo   ;;;;;;;",
";;;;;;;   ooooooo   ;;;;;;;   ooooooo   ;;;;;;;",
";;;;;;;   ooooooo   ;;;;;;;   ooooooo   ;;;;;;;",
";;;;;;;   ooooooo   ;;;;;;;   ooooooo   ;;;;;;;",
";;;;;;;;;;       ;;;;;;;;;;;;;       ;;;;;;;;;;",
";;;;;;;;;;       ;;;;;;;;;;;;;       ;;;;;;;;;;",
";;;;;;;;;;       ;;;;;;;;;;;;;       ;;;;;;;;;;"
};
