/* XPM */
static char *result[] = {
/* columns rows colors chars-per-pixel */
"54 64 14 1 ",
"  c black",
". c #682323",
"X c #793E3E",
"o c #353579",
"O c #C13535",
"+ c #F86846",
"@ c #D99170",
"# c #CA23CC",
"$ c #EB20EE",
"% c #70A1C1",
"& c #F8C191",
"* c #B1B1D1",
"= c #E9E9F8",
"- c None",
/* pixels */
"----------OOOOOOOOOOOOOOOOOOOOOOOOOOO-----------------",
"----------OOOOOOOOOOOOOOOOOOOOOOOOOOO-----------------",
"----------OOOOOOOOOOOOOOOOOOOOOOOOOOO-----------------",
"-------...+++++++++++++++++++++++++++...--------------",
"-------...+++++++++++++++++++++++++++...--------------",
"-------...+++++++++++++++++++++++++++...--------------",
"-------...+++++++++++++++++++++++++++...--------------",
"---....OOOOOOOOOOOOOOOOOOOOOOOOOOOOOOOOO....----------",
"---....OOOOOOOOOOOOOOOOOOOOOOOOOOOOOOOOO....----------",
"---....OOOOOOOOOOOOOOOOOOOOOOOOOOOOOOOOO....----------",
"---    OOOOOOOOOOOOO=======OOOOOOOOOOOOO    ----------",
"---    OOOOOOOOOOOOO=======OOOOOOOOOOOOO    ----------",
"---    OOOOOOOOOOOOO=======OOOOOOOOOOOOO    ----------",
"---    OOOOOOOOOO***OOOOOOO***OOOOOOOOOO    ----------",
"---    OOOOOOOOOO***OOOOOOO***OOOOOOOOOO    ----------",
"---    OOOOOOOOOO***OOOOOOO***OOOOOOOOOO    ----------",
"---    OOOOOOOOOO***OOOOOOO***OOOOOOOOOO    ----------",
"---    ...***=====================***XXXXXXX       ---",
"---    ...***=====================***XXXXXXX       ---",
"---    ...***=====================***XXXXXXX       ---",
"   XXXX   ooooooooooooooooooooooooooo   $$$$===$$$$   ",
"   XXXX   ooooooooooooooooooooooooooo   $$$$===$$$$   ",
"   XXXX   ooooooooooooooooooooooooooo   $$$$===$$$$   ",
"   XXXX   ooooooooooooooooooooooooooo   $$$$===$$$$   ",
"   @@@@XXX@@@@@@@   @@@@@@@   @@@@@@@   oooo#######   ",
"   @@@@XXX@@@@@@@   @@@@@@@   @@@@@@@   oooo#######   ",
"   @@@@XXX@@@@@@@   @@@@@@@   @@@@@@@   oooo#######   ",
"   @@@@@@@@@@&&&&XXX&&&&&&&XXX@@@@@@@   ====*******   ",
"   @@@@@@@@@@&&&&XXX&&&&&&&XXX@@@@@@@   ====*******   ",
"   @@@@@@@@@@&&&&XXX&&&&&&&XXX@@@@@@@   ====*******   ",
"---XXXXXXX@@@@@@@&&&&&&&&&&&&&@@@@@@@XXX           ---",
"---XXXXXXX@@@@@@@&&&&&&&&&&&&&@@@@@@@XXX           ---",
"---XXXXXXX@@@@@@@&&&&&&&&&&&&&@@@@@@@XXX           ---",
"---XXXXXXX@@@@@@@&&&&&&&&&&&&&@@@@@@@XXX           ---",
"-------      XXXX@@@@@@@@@@@@@XXXX   ooo    &&&&&&&XXX",
"-------      XXXX@@@@@@@@@@@@@XXXX   ooo    &&&&&&&XXX",
"-------      XXXX@@@@@@@@@@@@@XXXX   ooo    &&&&&&&XXX",
"-------   @@@oooo             OOOOooooooXXXX@@@@@@@XXX",
"-------   @@@oooo             OOOOooooooXXXX@@@@@@@XXX",
"-------   @@@oooo             OOOOooooooXXXX@@@@@@@XXX",
"-------   ooo+++++++**********++++ooooooooooXXXXXXX---",
"-------   ooo+++++++**********++++ooooooooooXXXXXXX---",
"-------   ooo+++++++**********++++ooooooooooXXXXXXX---",
"-------   ooo+++++++**********++++ooooooooooXXXXXXX---",
"----------   OOOO+++=======+++OOOOOOO   --------------",
"----------   OOOO+++=======+++OOOOOOO   --------------",
"----------   OOOO+++=======+++OOOOOOO   --------------",
"----------       OOO****===OOOOOOOOOO   --------------",
"----------       OOO****===OOOOOOOOOO   --------------",
"----------       OOO****===OOOOOOOOOO   --------------",
"----------       OOO****===OOOOOOOOOO   --------------",
"-------   ooo%%%%ooooooo          ooo%%%oooo----------",
"-------   ooo%%%%ooooooo          ooo%%%oooo----------",
"-------   ooo%%%%ooooooo          ooo%%%oooo----------",
"-------oooooooooo          ooo%%%%%%%       ----------",
"-------oooooooooo          ooo%%%%%%%       ----------",
"-------oooooooooo          ooo%%%%%%%       ----------",
"-------          -------------    oooooo    ----------",
"-------          -------------    oooooo    ----------",
"-------          -------------    oooooo    ----------",
"-------          -------------    oooooo    ----------",
"----------------------------------      --------------",
"----------------------------------      --------------",
"----------------------------------      --------------"
};
